<?xml version="1.0" encoding="UTF-8"?>
<svg version="1.1" xmlns="http://www.w3.org/2000/svg" width="209" height="220">
<path d="M0 0 C68.97 0 137.94 0 209 0 C209 72.6 209 145.2 209 220 C140.03 220 71.06 220 0 220 C0 147.4 0 74.8 0 0 Z " fill="#CBE9FD" transform="translate(0,0)"/>
<path d="M0 0 C68.97 0 137.94 0 209 0 C209 72.6 209 145.2 209 220 C140.03 220 71.06 220 0 220 C0 147.4 0 74.8 0 0 Z M140 31 C137.06282952 31.1020312 134.14854117 31.1436404 131.2109375 31.1418457 C129.84471001 31.14705734 129.84471001 31.14705734 128.45088196 31.15237427 C126.46745416 31.15973932 124.48401807 31.1650807 122.50057983 31.16866493 C119.35554318 31.17582555 116.210663 31.19149165 113.06567383 31.21000671 C104.12144185 31.26247736 95.17729253 31.31040182 86.23291016 31.32592773 C80.76448767 31.33604297 75.29645437 31.3654637 69.82818604 31.40724754 C67.74874829 31.41951865 65.66925546 31.42468595 63.58978271 31.42244911 C60.66751045 31.42008051 57.74634127 31.44238295 54.82421875 31.4699707 C53.97499344 31.46336929 53.12576813 31.45676788 52.25080872 31.44996643 C43.22351085 31.5888816 35.26035197 34.68803785 28.7429657 41.01174927 C20.23269873 50.71965376 21.34643527 61.71171633 21.51171875 73.8828125 C21.52105705 75.9087537 21.52816835 77.93470627 21.53315735 79.96066284 C21.55214701 85.26436137 21.60117803 90.56736321 21.65667725 95.87078857 C21.70804374 101.29397154 21.73070842 106.7172683 21.75585938 112.140625 C21.809305 122.76072091 21.89451962 133.38030227 22 144 C21.3796308 143.9826628 20.75926161 143.9653256 20.12009335 143.94746304 C19.30758397 143.93397855 18.4950746 143.92049406 17.65794373 143.90660095 C16.85194953 143.88926375 16.04595533 143.87192656 15.21553707 143.85406399 C12.83027465 143.84379996 12.83027465 143.84379996 10.47290039 145.49438477 C8.42722061 148.97438006 8.40765767 152.1620677 8.43359375 156.08984375 C8.42739517 156.87138321 8.42119659 157.65292267 8.41481018 158.45814514 C8.40771897 160.10807044 8.41087395 161.7580674 8.42358398 163.40795898 C8.43743846 165.9263144 8.40339024 168.44094345 8.36523438 170.95898438 C8.36428298 172.56510507 8.36614309 174.1712304 8.37109375 175.77734375 C8.35120644 176.90099586 8.35120644 176.90099586 8.33091736 178.04734802 C8.40196253 182.05764647 8.85454154 183.81913896 11.39941406 186.98339844 C14.08972924 189.06957975 15.00376174 189.59290155 18.3125 189.3125 C19.529375 189.209375 20.74625 189.10625 22 189 C22 189.99 22 190.98 22 192 C20.02 192 18.04 192 16 192 C15.67 192.99 15.34 193.98 15 195 C15.33 195.66 15.66 196.32 16 197 C73.75 197 131.5 197 191 197 C191.33 195.35 191.66 193.7 192 192 C191.01 192 190.02 192 189 192 C188.93941406 191.40832031 188.87882813 190.81664062 188.81640625 190.20703125 C188.37987629 186.09021792 187.91328654 182.04455467 187 178 C187.61875 177.938125 188.2375 177.87625 188.875 177.8125 C191.15838386 177.19454711 191.15838386 177.19454711 192.125 175.0625 C194.25215606 167.61745378 195.2910994 160.27443814 195.875 152.5625 C195.94855713 151.76884033 196.02211426 150.97518066 196.09790039 150.1574707 C196.30683546 147.61223961 196.30683546 147.61223961 196 144 C194.28845615 141.86708733 194.28845615 141.86708733 192 141 C191.34 141 190.68 141 190 141 C190.144375 140.26136719 190.28875 139.52273437 190.4375 138.76171875 C192.97754727 127.28927612 192.97754727 127.28927612 191.08984375 116.05078125 C188.30030466 112.3463451 185.28934614 111.28918021 181 110 C181.00888245 109.08402542 181.01776489 108.16805084 181.0269165 107.22431946 C181.10710069 98.5875519 181.16798392 89.95090954 181.20724869 81.31385517 C181.2281139 76.87354451 181.25641177 72.4335417 181.30175781 67.9934082 C181.34525406 63.70752631 181.36914513 59.42194032 181.37950897 55.13585472 C181.3868936 53.50157196 181.40131425 51.86730519 181.42292023 50.23314857 C181.45200559 47.94194306 181.45595403 45.65195645 181.45410156 43.3605957 C181.46298401 42.05709671 181.47186646 40.75359772 181.48101807 39.41059875 C180.91826166 35.42044448 179.86253705 33.78742327 177 31 C173.42727882 29.80909294 170.54746816 29.87042823 166.77734375 29.8671875 C166.0760585 29.86623077 165.37477325 29.86527405 164.65223694 29.86428833 C163.17204702 29.86360867 161.69185409 29.86544805 160.21166992 29.86962891 C157.94247781 29.87498824 155.6734829 29.86967263 153.40429688 29.86328125 C151.9661454 29.86394191 150.52799404 29.86522283 149.08984375 29.8671875 C147.77878662 29.86831543 146.46772949 29.86944336 145.11694336 29.87060547 C142.0926894 29.78293443 142.0926894 29.78293443 140 31 Z " fill="#FBFCFD" transform="translate(0,0)"/>
<path d="M0 0 C0.89014801 -0.00524185 1.78029602 -0.0104837 2.69741821 -0.0158844 C4.57854165 -0.02230085 6.45970523 -0.02097246 8.34082031 -0.01245117 C11.20971738 -0.00395613 14.07661283 -0.03268267 16.9453125 -0.06445312 C18.77604107 -0.06606572 20.60677315 -0.06548649 22.4375 -0.0625 C23.29080902 -0.07373398 24.14411804 -0.08496796 25.02328491 -0.09654236 C30.45590429 -0.03342909 33.52238788 0.85375564 37.8515625 4.43359375 C40.69696686 7.40479493 41.24299952 9.35315722 41.1640625 13.43359375 C41.00754521 19.53776825 40.02097622 25.45078961 38.8515625 31.43359375 C40.058125 31.89765625 40.058125 31.89765625 41.2890625 32.37109375 C43.8515625 33.43359375 43.8515625 33.43359375 44.8515625 34.43359375 C44.74167239 59.59842891 44.74167239 59.59842891 38.8515625 68.43359375 C37.8615625 68.43359375 36.8715625 68.43359375 35.8515625 68.43359375 C35.9959375 69.02527344 36.1403125 69.61695313 36.2890625 70.2265625 C37.25978944 74.35889316 38.12749952 78.15656995 37.8515625 82.43359375 C38.8415625 82.43359375 39.8315625 82.43359375 40.8515625 82.43359375 C40.5215625 84.08359375 40.1915625 85.73359375 39.8515625 87.43359375 C-17.8984375 87.43359375 -75.6484375 87.43359375 -135.1484375 87.43359375 C-135.4784375 86.11359375 -135.8084375 84.79359375 -136.1484375 83.43359375 C-135.1484375 82.43359375 -135.1484375 82.43359375 -132.0859375 82.37109375 C-131.1165625 82.39171875 -130.1471875 82.41234375 -129.1484375 82.43359375 C-129.1484375 81.44359375 -129.1484375 80.45359375 -129.1484375 79.43359375 C-112.6484375 79.43359375 -96.1484375 79.43359375 -79.1484375 79.43359375 C-79.1484375 80.42359375 -79.1484375 81.41359375 -79.1484375 82.43359375 C-67.9284375 82.43359375 -56.7084375 82.43359375 -45.1484375 82.43359375 C-45.1484375 77.81359375 -45.1484375 73.19359375 -45.1484375 68.43359375 C-46.1384375 68.43359375 -47.1284375 68.43359375 -48.1484375 68.43359375 C-48.1484375 67.77359375 -48.1484375 67.11359375 -48.1484375 66.43359375 C-48.8084375 66.43359375 -49.4684375 66.43359375 -50.1484375 66.43359375 C-50.27249757 62.39534309 -50.36298795 58.35783737 -50.4230957 54.31811523 C-50.44816367 52.94552273 -50.48222832 51.57306273 -50.52563477 50.20092773 C-50.58661281 48.22308679 -50.61204759 46.24425191 -50.63671875 44.265625 C-50.66290283 43.07686768 -50.68908691 41.88811035 -50.71606445 40.66333008 C-49.98293712 36.4919144 -48.40062326 35.05159576 -45.1484375 32.43359375 C-40.05699078 30.90615973 -34.55625871 31.31937939 -29.2734375 31.37109375 C-28.39429687 31.37560547 -27.51515625 31.38011719 -26.609375 31.38476562 C-24.45569947 31.39647038 -22.30205933 31.41440306 -20.1484375 31.43359375 C-20.17421875 30.43457031 -20.2 29.43554688 -20.2265625 28.40625 C-20.14796904 24.40977244 -19.65463623 20.79286908 -18.8984375 16.87109375 C-18.66640625 15.61167969 -18.434375 14.35226563 -18.1953125 13.0546875 C-15.18622047 2.64637292 -10.02228954 -0.03431686 0 0 Z " fill="#0045DE" transform="translate(151.1484375,109.56640625)"/>
<path d="M0 0 C0 28.38 0 56.76 0 86 C-3.465 86.99 -3.465 86.99 -7 88 C-7.66 88.66 -8.32 89.32 -9 90 C-9.02207488 92.67813399 -9.02207488 92.67813399 -8.625 95.625 C-8.51414063 96.62789063 -8.40328125 97.63078125 -8.2890625 98.6640625 C-8.19367188 99.43492187 -8.09828125 100.20578125 -8 101 C-11.3 101 -14.6 101 -18 101 C-18 92.75 -18 84.5 -18 76 C-16.02 75.505 -16.02 75.505 -14 75 C-13.896875 73.989375 -13.79375 72.97875 -13.6875 71.9375 C-12.96295233 67.78781792 -11.77730734 64.78643737 -10 61 C-11.98 61 -13.96 61 -16 61 C-16 59.02 -16 57.04 -16 55 C-15.34 55 -14.68 55 -14 55 C-14 53.68 -14 52.36 -14 51 C-14.7425 51.0825 -15.485 51.165 -16.25 51.25 C-19 51 -19 51 -21.3125 49.625 C-23.89505264 45.60769589 -23.31936644 41.64855591 -23 37 C-23.66 37 -24.32 37 -25 37 C-24.95359375 37.67546875 -24.9071875 38.3509375 -24.859375 39.046875 C-24.56495468 46.32326284 -24.56495468 46.32326284 -26.6875 49.625 C-29.36935783 51.21961817 -30.93109509 51.34098943 -34 51 C-34 52.32 -34 53.64 -34 55 C-33.34 55 -32.68 55 -32 55 C-32 56.98 -32 58.96 -32 61 C-33.98 61 -35.96 61 -38 61 C-37.71125 61.84304687 -37.4225 62.68609375 -37.125 63.5546875 C-36.75375 64.65039062 -36.3825 65.74609375 -36 66.875 C-35.443125 68.51082031 -35.443125 68.51082031 -34.875 70.1796875 C-34 73 -34 73 -34 75 C-33.01 75 -32.02 75 -31 75 C-31 85.56 -31 96.12 -31 107 C-28.23109375 106.95359375 -25.4621875 106.9071875 -22.609375 106.859375 C-19.92531161 106.82817308 -17.24126849 106.80388895 -14.55712891 106.78027344 C-12.69277899 106.76016739 -10.82849206 106.7328782 -8.96435547 106.69824219 C-6.28337052 106.64967879 -3.60321977 106.62702162 -0.921875 106.609375 C-0.08944275 106.58872986 0.7429895 106.56808472 1.60064697 106.54681396 C5.21280583 106.54541575 7.38509514 106.62972383 10.5222168 108.51879883 C12.58531808 111.98275031 12.59229571 115.16912865 12.56640625 119.08984375 C12.57260483 119.87138321 12.57880341 120.65292267 12.58518982 121.45814514 C12.59228103 123.10807044 12.58912605 124.7580674 12.57641602 126.40795898 C12.56256154 128.9263144 12.59660976 131.44094345 12.63476562 133.95898438 C12.63571702 135.56510507 12.63385691 137.1712304 12.62890625 138.77734375 C12.64216446 139.52644516 12.65542267 140.27554657 12.66908264 141.04734802 C12.60256267 144.80221214 12.21864339 146.72312542 9.86973572 149.69761658 C6.4203503 152.46505183 4.82465781 152.63180226 0.453125 152.64697266 C-1.50415527 152.67061386 -1.50415527 152.67061386 -3.50097656 152.69473267 C-4.91732633 152.68578261 -6.33366836 152.67552755 -7.75 152.6640625 C-9.21061608 152.66743321 -10.67122943 152.67228795 -12.13183594 152.67855835 C-15.18842352 152.6859179 -18.24427899 152.67525528 -21.30078125 152.65185547 C-25.21191684 152.62336645 -29.12133698 152.6397756 -33.03240967 152.66971779 C-36.04716841 152.68781667 -39.06152278 152.68202127 -42.07629395 152.66907883 C-43.51794642 152.66575188 -44.95963603 152.66980693 -46.40124512 152.68147659 C-48.41853092 152.69422403 -50.43594606 152.67133735 -52.453125 152.64697266 C-53.59942383 152.64299469 -54.74572266 152.63901672 -55.92675781 152.63491821 C-59.9693114 151.79974456 -61.47159965 150.20178804 -64 147 C-64.48745933 144.05808391 -64.68079763 141.70925607 -64.62890625 138.77734375 C-64.63131821 137.99484756 -64.63373016 137.21235138 -64.63621521 136.40614319 C-64.63523889 134.75793368 -64.62189628 133.10969052 -64.59692383 131.46166992 C-64.56255336 128.94141237 -64.57628742 126.42465213 -64.59570312 123.90429688 C-64.58880572 122.29946428 -64.57913428 120.6946407 -64.56640625 119.08984375 C-64.57136612 118.33871811 -64.57632599 117.58759247 -64.58143616 116.81370544 C-64.50899943 113.59214841 -64.33368786 111.46099454 -62.41978455 108.81690979 C-59.16343528 106.37186035 -56.78458957 106.39942924 -52.75 106.25 C-51.48671875 106.19328125 -50.2234375 106.1365625 -48.921875 106.078125 C-47.95765625 106.05234375 -46.9934375 106.0265625 -46 106 C-46.01110306 104.91973541 -46.02220612 103.83947083 -46.03364563 102.72647095 C-46.13526347 92.51667554 -46.21008116 82.30698352 -46.25906086 72.09679604 C-46.28508902 66.84833222 -46.3203628 61.60027858 -46.37719727 56.35205078 C-46.43175934 51.28158952 -46.46147148 46.21152134 -46.47438622 41.14078903 C-46.48358279 39.21197706 -46.50154133 37.28318517 -46.52865028 35.35454178 C-46.80068058 15.1883677 -46.80068058 15.1883677 -41 8 C-28.65096264 -3.53116367 -19.12134544 0 0 0 Z " fill="#D2ECFD" transform="translate(73,37)"/>
<path d="M0 0 C0.9182959 -0.00058411 1.8365918 -0.00116821 2.78271484 -0.00177002 C5.78051213 0.00098908 8.77728147 0.03197706 11.77490234 0.06347656 C13.86810768 0.0709467 15.96132005 0.07663598 18.05453491 0.08062744 C23.53566148 0.09582286 29.01635696 0.1350518 34.49731445 0.17944336 C40.1015032 0.220528 45.70576232 0.23866654 51.31005859 0.25878906 C62.28550732 0.30155224 73.26063758 0.36972917 84.23583984 0.45410156 C83.09562683 2.91862488 83.09562683 2.91862488 81.23583984 5.45410156 C78.63520813 6.05537415 78.63520813 6.05537415 75.47924805 6.02172852 C74.28174927 6.02112427 73.08425049 6.02052002 71.85046387 6.01989746 C69.96261169 5.98152771 69.96261169 5.98152771 68.03662109 5.94238281 C66.87980835 5.93734741 65.72299561 5.93231201 64.53112793 5.92712402 C60.20328038 5.9009324 55.87578564 5.83112553 51.54833984 5.76660156 C41.87521484 5.66347656 32.20208984 5.56035156 22.23583984 5.45410156 C22.23583984 33.50410156 22.23583984 61.55410156 22.23583984 90.45410156 C23.88583984 90.45410156 25.53583984 90.45410156 27.23583984 90.45410156 C27.73083984 88.96910156 27.73083984 88.96910156 28.23583984 87.45410156 C32.00597574 85.37818304 34.83580957 85.32156779 39.04833984 85.82910156 C40.02416016 85.93996094 40.99998047 86.05082031 42.00537109 86.16503906 C42.74142578 86.26042969 43.47748047 86.35582031 44.23583984 86.45410156 C44.34927734 87.0921875 44.46271484 87.73027344 44.57958984 88.38769531 C44.79615234 89.06960937 45.01271484 89.75152344 45.23583984 90.45410156 C46.8878844 91.1562205 48.55507753 91.8238157 50.23583984 92.45410156 C50.56583984 93.44410156 50.89583984 94.43410156 51.23583984 95.45410156 C54.20583984 95.45410156 57.17583984 95.45410156 60.23583984 95.45410156 C59.90583984 97.10410156 59.57583984 98.75410156 59.23583984 100.45410156 C54.94583984 100.78410156 50.65583984 101.11410156 46.23583984 101.45410156 C45.90583984 103.76410156 45.57583984 106.07410156 45.23583984 108.45410156 C48.15101276 107.38009049 50.0139416 106.67599981 52.23583984 104.45410156 C54.84521484 104.58300781 54.84521484 104.58300781 57.98583984 105.01660156 C63.14153828 105.55801142 65.72061111 105.14173772 70.23583984 102.45410156 C73.61083984 102.26660156 73.61083984 102.26660156 76.23583984 102.45410156 C76.23583984 104.76410156 76.23583984 107.07410156 76.23583984 109.45410156 C74.95708984 109.50308594 73.67833984 109.55207031 72.36083984 109.60253906 C70.65248762 109.67763147 68.94415526 109.75317643 67.23583984 109.82910156 C66.39666016 109.86003906 65.55748047 109.89097656 64.69287109 109.92285156 C59.2868541 110.17429421 54.39353656 110.76173233 49.23583984 112.45410156 C46.84635787 116.03832452 46.93350816 117.82642753 46.82177734 122.09082031 C46.78310547 123.38955078 46.74443359 124.68828125 46.70458984 126.02636719 C46.67313468 127.39810729 46.64188734 128.76985217 46.61083984 130.14160156 C46.57264788 131.52508941 46.53359542 132.90855379 46.49365234 134.29199219 C46.39923467 137.67922606 46.31365866 141.06645225 46.23583984 144.45410156 C46.89583984 144.45410156 47.55583984 144.45410156 48.23583984 144.45410156 C48.23583984 145.11410156 48.23583984 145.77410156 48.23583984 146.45410156 C49.22583984 146.45410156 50.21583984 146.45410156 51.23583984 146.45410156 C51.43331204 147.84855905 51.61832572 149.24478309 51.79833984 150.64160156 C51.95496094 151.80755859 51.95496094 151.80755859 52.11474609 152.99707031 C52.23583984 155.45410156 52.23583984 155.45410156 51.23583984 160.45410156 C40.01583984 160.45410156 28.79583984 160.45410156 17.23583984 160.45410156 C17.23583984 159.46410156 17.23583984 158.47410156 17.23583984 157.45410156 C17.93451172 157.34453125 18.63318359 157.23496094 19.35302734 157.12207031 C20.26310547 156.96351563 21.17318359 156.80496094 22.11083984 156.64160156 C23.01576172 156.49078125 23.92068359 156.33996094 24.85302734 156.18457031 C27.57996463 155.62358856 27.57996463 155.62358856 29.23583984 152.45410156 C29.44366362 149.73188716 29.53987541 147.11444041 29.53662109 144.39160156 C29.54304878 143.21005493 29.54304878 143.21005493 29.54960632 142.00463867 C29.55534563 140.34034181 29.55585281 138.67601986 29.55151367 137.01171875 C29.54835142 134.46343323 29.57182434 131.91630623 29.59716797 129.36816406 C29.59944076 127.75097803 29.60014455 126.13378887 29.59912109 124.51660156 C29.60833084 123.75404053 29.61754059 122.99147949 29.62702942 122.20581055 C29.66917426 118.22220149 29.66917426 118.22220149 27.95761108 114.75627136 C24.91440035 112.45470132 21.08802587 112.97042976 17.41162109 112.94238281 C16.11951973 112.91545601 16.11951973 112.91545601 14.80131531 112.88798523 C12.05037327 112.83380858 9.29960543 112.79996333 6.54833984 112.76660156 C4.68308119 112.73343494 2.81784554 112.69894589 0.95263672 112.66308594 C-3.61965499 112.5755877 -8.19114816 112.51558387 -12.76416016 112.45410156 C-12.76416016 101.89410156 -12.76416016 91.33410156 -12.76416016 80.45410156 C-13.75416016 80.45410156 -14.74416016 80.45410156 -15.76416016 80.45410156 C-16.43676367 78.68551465 -17.10204411 76.9141414 -17.76416016 75.14160156 C-18.32103516 73.66240234 -18.32103516 73.66240234 -18.88916016 72.15332031 C-19.76416016 69.45410156 -19.76416016 69.45410156 -19.76416016 66.45410156 C-17.78416016 66.45410156 -15.80416016 66.45410156 -13.76416016 66.45410156 C-13.76416016 64.47410156 -13.76416016 62.49410156 -13.76416016 60.45410156 C-14.42416016 60.45410156 -15.08416016 60.45410156 -15.76416016 60.45410156 C-15.76416016 59.13410156 -15.76416016 57.81410156 -15.76416016 56.45410156 C-14.11416016 56.45410156 -12.46416016 56.45410156 -10.76416016 56.45410156 C-10.43416016 55.46410156 -10.10416016 54.47410156 -9.76416016 53.45410156 C-8.77416016 52.95910156 -8.77416016 52.95910156 -7.76416016 52.45410156 C-7.29664228 50.09810921 -7.29664228 50.09810921 -7.13916016 47.39160156 C-7.06439453 46.4725 -6.98962891 45.55339844 -6.91259766 44.60644531 C-6.86361328 43.89617187 -6.81462891 43.18589844 -6.76416016 42.45410156 C-6.10416016 42.45410156 -5.44416016 42.45410156 -4.76416016 42.45410156 C-4.72677734 43.15277344 -4.68939453 43.85144531 -4.65087891 44.57128906 C-4.58513672 45.48136719 -4.51939453 46.39144531 -4.45166016 47.32910156 C-4.39365234 48.23402344 -4.33564453 49.13894531 -4.27587891 50.07128906 C-3.97595626 52.81631757 -3.97595626 52.81631757 -0.76416016 54.45410156 C-0.76416016 55.11410156 -0.76416016 55.77410156 -0.76416016 56.45410156 C0.88583984 56.45410156 2.53583984 56.45410156 4.23583984 56.45410156 C4.23583984 57.77410156 4.23583984 59.09410156 4.23583984 60.45410156 C3.57583984 60.45410156 2.91583984 60.45410156 2.23583984 60.45410156 C2.23583984 62.43410156 2.23583984 64.41410156 2.23583984 66.45410156 C4.21583984 66.45410156 6.19583984 66.45410156 8.23583984 66.45410156 C7.47684237 69.52589324 6.69912821 72.59041218 5.86083984 75.64160156 C5.62623047 76.52203125 5.39162109 77.40246094 5.14990234 78.30957031 C4.69744141 79.37111328 4.69744141 79.37111328 4.23583984 80.45410156 C3.24583984 80.78410156 2.25583984 81.11410156 1.23583984 81.45410156 C0.90583984 89.70410156 0.57583984 97.95410156 0.23583984 106.45410156 C3.53583984 106.45410156 6.83583984 106.45410156 10.23583984 106.45410156 C9.74083984 105.12378906 9.74083984 105.12378906 9.23583984 103.76660156 C8.29542368 100.65147301 7.73128064 98.64964321 8.23583984 95.45410156 C9.86083984 93.14160156 9.86083984 93.14160156 12.23583984 91.45410156 C14.21583984 91.45410156 16.19583984 91.45410156 18.23583984 91.45410156 C18.23583984 63.07410156 18.23583984 34.69410156 18.23583984 5.45410156 C-3.92790588 4.16205403 -3.92790588 4.16205403 -22.01806641 13.80566406 C-22.44990234 14.55589844 -22.88173828 15.30613281 -23.32666016 16.07910156 C-23.78169922 16.83449219 -24.23673828 17.58988281 -24.70556641 18.36816406 C-26.97843479 22.84680509 -26.93472008 26.96793604 -26.96948242 31.87280273 C-26.97938202 32.73155502 -26.98928162 33.59030731 -26.9994812 34.4750824 C-27.03108782 37.31571692 -27.05585036 40.15636817 -27.08056641 42.99707031 C-27.10113665 44.9657688 -27.12213315 46.93446289 -27.14353943 48.90315247 C-27.19875277 54.08658274 -27.24816534 59.27005283 -27.29638672 64.45355225 C-27.34660709 69.74218288 -27.40229037 75.03075566 -27.45751953 80.31933594 C-27.5650921 90.69754172 -27.66653912 101.07579773 -27.76416016 111.45410156 C-29.41416016 111.45410156 -31.06416016 111.45410156 -32.76416016 111.45410156 C-32.88029887 99.89237452 -32.96899968 88.33078755 -33.02322102 76.76859474 C-33.04925207 71.39906755 -33.08453134 66.02994112 -33.14135742 60.66064453 C-33.19590888 55.4734748 -33.22562947 50.28668918 -33.23854637 45.09925461 C-33.24774482 43.12578668 -33.26570705 41.15233843 -33.29281044 39.17903519 C-33.57092132 18.08088657 -33.57092132 18.08088657 -26.02119446 9.46499634 C-18.66578191 2.33139418 -10.0395503 -0.17126567 0 0 Z " fill="#7DC5F7" transform="translate(54.76416015625,31.5458984375)"/>
<path d="M0 0 C0.65740173 -0.00700928 1.31480347 -0.01401855 1.99212646 -0.02124023 C4.15924667 -0.03880619 6.32505466 -0.02720423 8.4921875 -0.01367188 C10.00146739 -0.01636724 11.51074558 -0.02025003 13.02001953 -0.02526855 C16.18083249 -0.03116164 19.34119284 -0.02260738 22.50195312 -0.00390625 C26.55087307 0.01888393 30.59873248 0.00575973 34.64761353 -0.01819611 C37.76350883 -0.03265965 40.87915324 -0.02804571 43.99505615 -0.01768494 C45.4877739 -0.01501915 46.98051454 -0.01828225 48.47320557 -0.02760315 C50.56087454 -0.03777883 52.64683324 -0.02225756 54.734375 0 C56.51497314 0.00477356 56.51497314 0.00477356 58.33154297 0.00964355 C61.99677628 0.6229231 63.18324608 1.55272979 65.3671875 4.51757812 C65.7773155 7.34642897 65.95226647 9.77961304 65.93359375 12.60742188 C65.93979233 13.38896133 65.94599091 14.17050079 65.95237732 14.97572327 C65.95946853 16.62564857 65.95631355 18.27564553 65.94360352 19.92553711 C65.92974904 22.44389252 65.96379726 24.95852158 66.00195312 27.4765625 C66.00290452 29.0826832 66.00104441 30.68880853 65.99609375 32.29492188 C66.00935196 33.04402328 66.02261017 33.79312469 66.03627014 34.56492615 C65.96975017 38.31979026 65.58583089 40.24070355 63.23692322 43.2151947 C59.7875378 45.98262996 58.19184531 46.14938038 53.8203125 46.16455078 C51.86303223 46.18819199 51.86303223 46.18819199 49.86621094 46.21231079 C48.44986117 46.20336073 47.03351914 46.19310567 45.6171875 46.18164062 C44.15657142 46.18501133 42.69595807 46.18986608 41.23535156 46.19613647 C38.17876398 46.20349602 35.12290851 46.1928334 32.06640625 46.16943359 C28.15527066 46.14094457 24.24585052 46.15735373 20.33477783 46.18729591 C17.32001909 46.2053948 14.30566472 46.19959939 11.29089355 46.18665695 C9.84924108 46.18333001 8.40755147 46.18738505 6.96594238 46.19905472 C4.94865658 46.21180215 2.93124144 46.18891548 0.9140625 46.16455078 C-0.23223633 46.16057281 -1.37853516 46.15659485 -2.55957031 46.15249634 C-6.6021239 45.31732269 -8.10441215 43.71936616 -10.6328125 40.51757812 C-11.12027183 37.57566204 -11.31361013 35.22683419 -11.26171875 32.29492188 C-11.26413071 31.51242569 -11.26654266 30.7299295 -11.26902771 29.92372131 C-11.26805139 28.27551181 -11.25470878 26.62726865 -11.22973633 24.97924805 C-11.19536586 22.45899049 -11.20909992 19.94223025 -11.22851562 17.421875 C-11.22161822 15.8170424 -11.21194678 14.21221882 -11.19921875 12.60742188 C-11.20417862 11.85629623 -11.20913849 11.10517059 -11.21424866 10.33128357 C-11.14115582 7.08054631 -10.96798095 4.97259199 -9.01402283 2.31996155 C-5.86297966 -0.06512301 -3.93096318 0.01053842 0 0 Z " fill="#D3F105" transform="translate(19.6328125,143.482421875)"/>
<path d="M0 0 C1.25668488 0.00636726 1.25668488 0.00636726 2.53875732 0.01286316 C5.20846002 0.02962467 7.87740137 0.06727164 10.546875 0.10546875 C12.35936408 0.12051888 14.17186502 0.13420672 15.984375 0.14648438 C20.42216731 0.17951986 24.85939217 0.23128432 29.296875 0.29296875 C29.296875 0.95296875 29.296875 1.61296875 29.296875 2.29296875 C29.956875 2.29296875 30.616875 2.29296875 31.296875 2.29296875 C32.95297892 5.6051766 32.20096617 9.24031262 31.984375 12.85546875 C31.93804932 13.66870605 31.89172363 14.48194336 31.84399414 15.31982422 C31.49091453 20.82037493 30.77582235 25.96875828 29.296875 31.29296875 C27.43482422 31.33164063 27.43482422 31.33164063 25.53515625 31.37109375 C23.89319472 31.42738957 22.251269 31.48473658 20.609375 31.54296875 C19.38444336 31.56423828 19.38444336 31.56423828 18.13476562 31.5859375 C14.13258272 31.7479692 11.77953468 32.00574565 8.27734375 34.08984375 C5.95722271 36.32502183 5.95722271 36.32502183 5.296875 40.29296875 C-2.293125 40.29296875 -9.883125 40.29296875 -17.703125 40.29296875 C-18.033125 37.98296875 -18.363125 35.67296875 -18.703125 33.29296875 C-25.37804331 32.83786068 -31.29687057 34.52572615 -37.703125 36.29296875 C-37.76371094 37.07542969 -37.82429688 37.85789063 -37.88671875 38.6640625 C-37.97050781 39.67597656 -38.05429688 40.68789062 -38.140625 41.73046875 C-38.22183594 42.73980469 -38.30304688 43.74914062 -38.38671875 44.7890625 C-38.703125 47.29296875 -38.703125 47.29296875 -39.703125 48.29296875 C-39.8276736 49.93527239 -39.87881024 51.58349151 -39.890625 53.23046875 C-39.91189453 54.57431641 -39.91189453 54.57431641 -39.93359375 55.9453125 C-39.93507269 58.48411409 -39.93507269 58.48411409 -37.703125 60.29296875 C-34.65321071 60.51768536 -31.69686352 60.62116086 -28.64453125 60.62890625 C-27.29439186 60.63889145 -27.29439186 60.63889145 -25.91697693 60.64907837 C-24.0113225 60.65921357 -22.10563252 60.66389512 -20.19995117 60.66357422 C-17.2804938 60.66794648 -14.36254895 60.70425355 -11.44335938 60.7421875 C-9.59375518 60.7480556 -7.74414379 60.75202504 -5.89453125 60.75390625 C-5.01946426 60.76827728 -4.14439728 60.78264832 -3.24281311 60.79745483 C1.46648053 60.871176 1.46648053 60.871176 5.33447266 58.51000977 C7.10666038 54.42750426 7.0982177 49.97044545 7.38085938 45.58007812 C7.81064661 40.64403688 8.68484874 37.96337119 12.296875 34.29296875 C13.946875 34.62296875 15.596875 34.95296875 17.296875 35.29296875 C16.88064031 42.50040109 16.34163983 49.68630709 15.484375 56.85546875 C15.35417969 57.97050781 15.22398437 59.08554688 15.08984375 60.234375 C14.07630229 64.14374922 13.39249052 65.62382559 10.296875 68.29296875 C6.23255216 69.01437625 2.20977959 68.87277646 -1.90625 68.78125 C-3.09917664 68.77417526 -4.29210327 68.76710052 -5.5211792 68.7598114 C-9.33246484 68.73181614 -13.14228314 68.66906277 -16.953125 68.60546875 C-19.53643712 68.58039276 -22.11977226 68.55757838 -24.703125 68.53710938 C-31.03695924 68.48197231 -37.3699373 68.3982926 -43.703125 68.29296875 C-44.033125 69.28296875 -44.363125 70.27296875 -44.703125 71.29296875 C-44.703125 70.30296875 -44.703125 69.31296875 -44.703125 68.29296875 C-45.693125 68.29296875 -46.683125 68.29296875 -47.703125 68.29296875 C-47.703125 67.63296875 -47.703125 66.97296875 -47.703125 66.29296875 C-48.363125 66.29296875 -49.023125 66.29296875 -49.703125 66.29296875 C-49.82718507 62.25471809 -49.91767545 58.21721237 -49.9777832 54.17749023 C-50.00285117 52.80489773 -50.03691582 51.43243773 -50.08032227 50.06030273 C-50.14130031 48.08246179 -50.16673509 46.10362691 -50.19140625 44.125 C-50.21759033 42.93624268 -50.24377441 41.74748535 -50.27075195 40.52270508 C-49.53762462 36.3512894 -47.95531076 34.91097076 -44.703125 32.29296875 C-39.61167828 30.76553473 -34.11094621 31.17875439 -28.828125 31.23046875 C-27.94898437 31.23498047 -27.06984375 31.23949219 -26.1640625 31.24414062 C-24.01038697 31.25584538 -21.85674683 31.27377806 -19.703125 31.29296875 C-19.72890625 30.29394531 -19.7546875 29.29492188 -19.78125 28.265625 C-19.70265654 24.26914744 -19.20932373 20.65224408 -18.453125 16.73046875 C-18.22109375 15.47105469 -17.9890625 14.21164063 -17.75 12.9140625 C-14.85559124 2.9024322 -9.9667332 -0.19039153 0 0 Z " fill="#0371FC" transform="translate(150.703125,109.70703125)"/>
<path d="M0 0 C26.4 0 52.8 0 80 0 C82.25 10.125 82.25 10.125 82 14 C82.99 14 83.98 14 85 14 C84.67 15.65 84.34 17.3 84 19 C26.25 19 -31.5 19 -91 19 C-91.33 17.68 -91.66 16.36 -92 15 C-91 14 -91 14 -87.9375 13.9375 C-86.4834375 13.9684375 -86.4834375 13.9684375 -85 14 C-85 13.01 -85 12.02 -85 11 C-68.5 11 -52 11 -35 11 C-35 11.99 -35 12.98 -35 14 C-23.78 14 -12.56 14 -1 14 C-0.67 9.38 -0.34 4.76 0 0 Z " fill="#065549" transform="translate(107,178)"/>
<path d="M0 0 C2.24541575 -0.00968373 4.48990742 -0.0406952 6.73510742 -0.07226562 C8.16804471 -0.07879815 9.60098853 -0.08404764 11.03393555 -0.08789062 C12.98650269 -0.10190918 12.98650269 -0.10190918 14.97851562 -0.11621094 C18.68954649 0.26462164 20.52126683 0.97993926 23.4519043 3.24023438 C26.60230826 7.96584032 25.86192867 13.01902871 25.87744141 18.58203125 C25.88932731 20.60214967 25.93850222 22.61919919 25.98901367 24.63867188 C25.99610352 25.91742188 26.00319336 27.19617188 26.01049805 28.51367188 C26.02395264 29.68333496 26.03740723 30.85299805 26.05126953 32.05810547 C25.27430219 36.18315325 23.67350161 37.63864258 20.4519043 40.24023438 C15.25410525 41.97283406 9.69753534 41.54475687 4.25561523 41.59033203 C2.80655866 41.60689453 1.35758389 41.63418944 -0.09106445 41.67236328 C-2.18914787 41.72729944 -4.28532634 41.74902499 -6.3840332 41.76367188 C-8.26421143 41.79340088 -8.26421143 41.79340088 -10.18237305 41.82373047 C-14.41877691 41.08928935 -15.8366 39.48388694 -18.5480957 36.24023438 C-18.8780957 35.91023438 -19.2080957 35.58023438 -19.5480957 35.24023438 C-19.81460314 31.18049895 -19.81939116 27.11705419 -19.84326172 23.04931641 C-19.86041247 21.01200087 -19.90427072 18.97633506 -19.94848633 16.93945312 C-19.95686523 15.65167969 -19.96524414 14.36390625 -19.97387695 13.03710938 C-19.98845947 11.8547168 -20.00304199 10.67232422 -20.01806641 9.45410156 C-19.45567717 5.60823562 -18.24268967 3.985303 -15.5480957 1.24023438 C-11.07472289 -0.99645203 -4.97601541 0.01300777 0 0 Z " fill="#DFF510" transform="translate(155.548095703125,29.759765625)"/>
<path d="M0 0 C0.9182959 -0.00058411 1.8365918 -0.00116821 2.78271484 -0.00177002 C5.78051213 0.00098908 8.77728147 0.03197706 11.77490234 0.06347656 C13.86810768 0.0709467 15.96132005 0.07663598 18.05453491 0.08062744 C23.53566148 0.09582286 29.01635696 0.1350518 34.49731445 0.17944336 C40.1015032 0.220528 45.70576232 0.23866654 51.31005859 0.25878906 C62.28550732 0.30155224 73.26063758 0.36972917 84.23583984 0.45410156 C83.09562683 2.91862488 83.09562683 2.91862488 81.23583984 5.45410156 C78.63520813 6.05537415 78.63520813 6.05537415 75.47924805 6.02172852 C74.28174927 6.02112427 73.08425049 6.02052002 71.85046387 6.01989746 C69.96261169 5.98152771 69.96261169 5.98152771 68.03662109 5.94238281 C66.87980835 5.93734741 65.72299561 5.93231201 64.53112793 5.92712402 C60.20328038 5.9009324 55.87578564 5.83112553 51.54833984 5.76660156 C41.87521484 5.66347656 32.20208984 5.56035156 22.23583984 5.45410156 C22.23583984 31.85410156 22.23583984 58.25410156 22.23583984 85.45410156 C20.25583984 85.94910156 20.25583984 85.94910156 18.23583984 86.45410156 C18.23583984 59.72410156 18.23583984 32.99410156 18.23583984 5.45410156 C-3.92790588 4.16205403 -3.92790588 4.16205403 -22.01806641 13.80566406 C-22.44990234 14.55589844 -22.88173828 15.30613281 -23.32666016 16.07910156 C-23.78169922 16.83449219 -24.23673828 17.58988281 -24.70556641 18.36816406 C-26.97843479 22.84680509 -26.93472008 26.96793604 -26.96948242 31.87280273 C-26.97938202 32.73155502 -26.98928162 33.59030731 -26.9994812 34.4750824 C-27.03108782 37.31571692 -27.05585036 40.15636817 -27.08056641 42.99707031 C-27.10113665 44.9657688 -27.12213315 46.93446289 -27.14353943 48.90315247 C-27.19875277 54.08658274 -27.24816534 59.27005283 -27.29638672 64.45355225 C-27.34660709 69.74218288 -27.40229037 75.03075566 -27.45751953 80.31933594 C-27.5650921 90.69754172 -27.66653912 101.07579773 -27.76416016 111.45410156 C-29.41416016 111.45410156 -31.06416016 111.45410156 -32.76416016 111.45410156 C-32.88029887 99.89237452 -32.96899968 88.33078755 -33.02322102 76.76859474 C-33.04925207 71.39906755 -33.08453134 66.02994112 -33.14135742 60.66064453 C-33.19590888 55.4734748 -33.22562947 50.28668918 -33.23854637 45.09925461 C-33.24774482 43.12578668 -33.26570705 41.15233843 -33.29281044 39.17903519 C-33.57092132 18.08088657 -33.57092132 18.08088657 -26.02119446 9.46499634 C-18.66578191 2.33139418 -10.0395503 -0.17126567 0 0 Z " fill="#69B7F3" transform="translate(54.76416015625,31.5458984375)"/>
<path d="M0 0 C19.14 0 38.28 0 58 0 C58 5.61 58 11.22 58 17 C51.64230781 17.65207099 45.6620834 18.10105073 39.2890625 17.546875 C36.71710811 17.81710096 36.71710811 17.81710096 34.79321289 20.47265625 C31.34721531 23.59065004 29.60468076 23.69771932 25.01953125 23.890625 C24.03843636 23.94304352 24.03843636 23.94304352 23.03752136 23.996521 C20.96286472 24.10317026 18.88861044 24.17768685 16.8125 24.25 C14.72647469 24.34325704 12.64089675 24.44307507 10.55534363 24.54632568 C8.67127645 24.63636021 6.78643403 24.70970934 4.90161133 24.78222656 C2.06213043 24.8110104 2.06213043 24.8110104 0 26 C0 17.42 0 8.84 0 0 Z " fill="#DFF2FD" transform="translate(78,38)"/>
<path d="M0 0 C0.66 0 1.32 0 2 0 C2.03738281 0.69867188 2.07476562 1.39734375 2.11328125 2.1171875 C2.21189453 3.48230469 2.21189453 3.48230469 2.3125 4.875 C2.39951172 6.23238281 2.39951172 6.23238281 2.48828125 7.6171875 C2.7882039 10.36221601 2.7882039 10.36221601 6 12 C6 12.66 6 13.32 6 14 C7.65 14 9.3 14 11 14 C11 15.32 11 16.64 11 18 C10.34 18 9.68 18 9 18 C9 19.98 9 21.96 9 24 C10.98 24 12.96 24 15 24 C14.24100252 27.07179168 13.46328837 30.13631062 12.625 33.1875 C12.39039062 34.06792969 12.15578125 34.94835937 11.9140625 35.85546875 C11.61242187 36.56316406 11.31078125 37.27085938 11 38 C9.515 38.495 9.515 38.495 8 39 C7.67 49.23 7.34 59.46 7 70 C2.71 70 -1.58 70 -6 70 C-6 59.44 -6 48.88 -6 38 C-6.99 38 -7.98 38 -9 38 C-9.67260351 36.23141309 -10.33788395 34.46003984 -11 32.6875 C-11.37125 31.70136719 -11.7425 30.71523437 -12.125 29.69921875 C-13 27 -13 27 -13 24 C-11.02 24 -9.04 24 -7 24 C-7 22.02 -7 20.04 -7 18 C-7.66 18 -8.32 18 -9 18 C-9 16.68 -9 15.36 -9 14 C-7.35 14 -5.7 14 -4 14 C-3.67 13.01 -3.34 12.02 -3 11 C-2.34 10.67 -1.68 10.34 -1 10 C-0.53248212 7.64400765 -0.53248212 7.64400765 -0.375 4.9375 C-0.30023438 4.01839844 -0.22546875 3.09929687 -0.1484375 2.15234375 C-0.09945312 1.44207031 -0.05046875 0.73179688 0 0 Z " fill="#0786FC" transform="translate(48,74)"/>
<path d="M0 0 C0.65740173 -0.00700928 1.31480347 -0.01401855 1.99212646 -0.02124023 C4.15924667 -0.03880619 6.32505466 -0.02720423 8.4921875 -0.01367188 C10.00146739 -0.01636724 11.51074558 -0.02025003 13.02001953 -0.02526855 C16.18083249 -0.03116164 19.34119284 -0.02260738 22.50195312 -0.00390625 C26.55087307 0.01888393 30.59873248 0.00575973 34.64761353 -0.01819611 C37.76350883 -0.03265965 40.87915324 -0.02804571 43.99505615 -0.01768494 C45.4877739 -0.01501915 46.98051454 -0.01828225 48.47320557 -0.02760315 C50.56087454 -0.03777883 52.64683324 -0.02225756 54.734375 0 C56.51497314 0.00477356 56.51497314 0.00477356 58.33154297 0.00964355 C61.99677628 0.6229231 63.18324608 1.55272979 65.3671875 4.51757812 C65.7773155 7.34642897 65.95226647 9.77961304 65.93359375 12.60742188 C65.93979233 13.38896133 65.94599091 14.17050079 65.95237732 14.97572327 C65.95946853 16.62564857 65.95631355 18.27564553 65.94360352 19.92553711 C65.92974904 22.44389252 65.96379726 24.95852158 66.00195312 27.4765625 C66.00290452 29.0826832 66.00104441 30.68880853 65.99609375 32.29492188 C66.00935196 33.04402328 66.02261017 33.79312469 66.03627014 34.56492615 C65.96975017 38.31979026 65.58583089 40.24070355 63.23692322 43.2151947 C59.7875378 45.98262996 58.19184531 46.14938038 53.8203125 46.16455078 C51.86303223 46.18819199 51.86303223 46.18819199 49.86621094 46.21231079 C48.44986117 46.20336073 47.03351914 46.19310567 45.6171875 46.18164062 C44.15657142 46.18501133 42.69595807 46.18986608 41.23535156 46.19613647 C38.17876398 46.20349602 35.12290851 46.1928334 32.06640625 46.16943359 C28.15527066 46.14094457 24.24585052 46.15735373 20.33477783 46.18729591 C17.32001909 46.2053948 14.30566472 46.19959939 11.29089355 46.18665695 C9.84924108 46.18333001 8.40755147 46.18738505 6.96594238 46.19905472 C4.94865658 46.21180215 2.93124144 46.18891548 0.9140625 46.16455078 C-0.23223633 46.16057281 -1.37853516 46.15659485 -2.55957031 46.15249634 C-6.6021239 45.31732269 -8.10441215 43.71936616 -10.6328125 40.51757812 C-11.12027183 37.57566204 -11.31361013 35.22683419 -11.26171875 32.29492188 C-11.26413071 31.51242569 -11.26654266 30.7299295 -11.26902771 29.92372131 C-11.26805139 28.27551181 -11.25470878 26.62726865 -11.22973633 24.97924805 C-11.19536586 22.45899049 -11.20909992 19.94223025 -11.22851562 17.421875 C-11.22161822 15.8170424 -11.21194678 14.21221882 -11.19921875 12.60742188 C-11.20417862 11.85629623 -11.20913849 11.10517059 -11.21424866 10.33128357 C-11.14115582 7.08054631 -10.96798095 4.97259199 -9.01402283 2.31996155 C-5.86297966 -0.06512301 -3.93096318 0.01053842 0 0 Z M-5.49327087 5.84170532 C-7.36810154 8.59893476 -6.98505388 11.24352777 -6.9609375 14.52148438 C-6.95906433 15.20057358 -6.95719116 15.87966278 -6.95526123 16.57933044 C-6.94854771 18.01249107 -6.93464691 19.44563359 -6.9140625 20.87866211 C-6.88287705 23.07553075 -6.87308765 25.27168183 -6.8671875 27.46875 C-7.21465368 34.19677084 -7.21465368 34.19677084 -5.6328125 40.51757812 C16.1471875 40.51757812 37.9271875 40.51757812 60.3671875 40.51757812 C62.50772099 36.23651115 61.55304201 30.52425858 61.55249023 25.76904297 C61.5546719 23.65767113 61.57281853 21.54682591 61.59179688 19.43554688 C61.59473192 18.09049658 61.59671597 16.7454438 61.59765625 15.40039062 C61.60176514 14.17723145 61.60587402 12.95407227 61.61010742 11.69384766 C61.37498853 8.61957956 60.80864811 7.15437835 59.3671875 4.51757812 C51.20485274 4.44809737 43.04264133 4.39477694 34.88008404 4.36214161 C31.0899531 4.34647902 27.30002434 4.32523034 23.51000977 4.29125977 C19.85308149 4.25868683 16.1963478 4.24072958 12.53928566 4.2329464 C11.14339954 4.22739911 9.74752419 4.21656663 8.35172081 4.20038795 C6.3982416 4.17864384 4.44456699 4.17735298 2.4909668 4.17700195 C0.8221772 4.1670092 0.8221772 4.1670092 -0.88032532 4.15681458 C-3.63322928 4.29875687 -3.63322928 4.29875687 -5.49327087 5.84170532 Z " fill="#ACDB0F" transform="translate(19.6328125,143.482421875)"/>
<path d="M0 0 C3.17285427 1.08290896 6.33091503 2.18977629 9.47265625 3.359375 C15.1524598 5.355912 18.46802696 4.76656509 23.8125 2.4375 C28.07461991 0.78764713 31.44900378 0.60767274 36 1 C36.66 1.66 37.32 2.32 38 3 C37.9375 4.9375 37.9375 4.9375 37 7 C32.5671547 10.35821613 26.59660114 13 21 13 C20.89816406 13.53109375 20.79632813 14.0621875 20.69140625 14.609375 C19.79691899 17.7021784 18.40138873 20.38451568 16.9375 23.25 C16.38964844 24.32765625 15.84179688 25.4053125 15.27734375 26.515625 C14.85582031 27.33546875 14.43429688 28.1553125 14 29 C13.01 29 12.02 29 11 29 C10.67 25.37 10.34 21.74 10 18 C8.35 18.495 6.7 18.99 5 19.5 C0.0942904 20.83389784 -3.93694988 21.45205805 -9 21 C-12.35914922 18.76056718 -12.81681636 17.73157917 -14 14 C-14 13.01 -14 12.02 -14 11 C-11.28700425 11.46508499 -9.17262985 11.90409453 -6.75 13.25 C-2.45132164 14.42236683 0.97824446 12.629731 5 11 C5 10.34 5 9.68 5 9 C4.319375 8.773125 3.63875 8.54625 2.9375 8.3125 C-0.6988709 6.68773854 -4.02829263 4.67196743 -7 2 C-7 1.34 -7 0.68 -7 0 C-4.23481573 -1.38259213 -2.99248103 -0.76456246 0 0 Z " fill="#1285FC" transform="translate(100,73)"/>
<path d="M0 0 C0 12.87 0 25.74 0 39 C-4.95 39 -9.9 39 -15 39 C-15 26.46 -15 13.92 -15 1 C-3 0 -3 0 0 0 Z " fill="#D0ECFC" transform="translate(176,70)"/>
<path d="M0 0 C1.22912109 -0.00128906 2.45824219 -0.00257813 3.72460938 -0.00390625 C5.63790039 0.00189453 5.63790039 0.00189453 7.58984375 0.0078125 C8.86923828 0.00394531 10.14863281 0.00007812 11.46679688 -0.00390625 C12.69462891 -0.00261719 13.92246094 -0.00132812 15.1875 0 C16.30777588 0.00112793 17.42805176 0.00225586 18.58227539 0.00341797 C21.08439396 0.11335106 23.14592125 0.40268845 25.52734375 1.1328125 C25.58129853 2.75745092 25.6201157 4.38259791 25.65234375 6.0078125 C25.67554688 6.91273438 25.69875 7.81765625 25.72265625 8.75 C25.52734375 11.1328125 25.52734375 11.1328125 23.52734375 13.1328125 C20.65845794 13.30813539 17.8874173 13.36418864 15.01953125 13.328125 C13.75860153 13.32388016 13.75860153 13.32388016 12.47219849 13.31954956 C9.78210329 13.3083368 7.09233865 13.28323053 4.40234375 13.2578125 C2.58073397 13.2477841 0.75911898 13.23865801 -1.0625 13.23046875 C-5.53267983 13.20839392 -10.00261196 13.17385684 -14.47265625 13.1328125 C-14.55397088 11.69625396 -14.61199184 10.2583642 -14.66015625 8.8203125 C-14.69496094 8.01980469 -14.72976562 7.21929687 -14.765625 6.39453125 C-14.47265625 4.1328125 -14.47265625 4.1328125 -13.10362244 2.3822937 C-9.36171911 -0.48437386 -4.51407963 0.00454035 0 0 Z " fill="#0171FC" transform="translate(128.47265625,153.8671875)"/>
<path d="M0 0 C0.99 3.96 0.99 3.96 2 8 C2.66 7.01 3.32 6.02 4 5 C4 6.65 4 8.3 4 10 C4.99 10 5.98 10 7 10 C6.67 11.65 6.34 13.3 6 15 C-51.75 15 -109.5 15 -169 15 C-169 14.67 -169 14.34 -169 14 C-120.16 14 -71.32 14 -21 14 C-21 13.34 -21 12.68 -21 12 C-20.34 11.67 -19.68 11.34 -19 11 C-19.99 10.67 -20.98 10.34 -22 10 C-22 7.03 -22 4.06 -22 1 C-19.27093526 0.83150207 -16.54176829 0.6651397 -13.8125 0.5 C-13.04357422 0.45230469 -12.27464844 0.40460938 -11.48242188 0.35546875 C-7.648496 0.12510411 -3.84309823 -0.0616128 0 0 Z " fill="#336864" transform="translate(185,182)"/>
<path d="M0 0 C4.41244536 0.50427947 6.74974317 2.01327751 10 5 C14.7920493 12.18807395 11.56172152 23.01012114 10 31 C10.804375 31.309375 11.60875 31.61875 12.4375 31.9375 C15 33 15 33 16 34 C15.89010989 59.16483516 15.89010989 59.16483516 10 68 C7.3984375 68.29296875 7.3984375 68.29296875 4.375 68.1875 C2.87066406 68.14689453 2.87066406 68.14689453 1.3359375 68.10546875 C0.56507813 68.07066406 -0.20578125 68.03585938 -1 68 C-0.505 67.01 -0.505 67.01 0 66 C1.12535156 65.65066406 2.25070313 65.30132812 3.41015625 64.94140625 C5.79300863 63.96768252 6.7658486 63.45902351 7.94873047 61.14013672 C8.60104456 58.74657748 9.05021375 56.38779397 9.4375 53.9375 C9.59669922 53.12861328 9.75589844 52.31972656 9.91992188 51.48632812 C11.02947217 45.43903883 11 40.39057375 11 34 C3.74 33.67 -3.52 33.34 -11 33 C-10.67 32.34 -10.34 31.68 -10 31 C-6.7 31 -3.4 31 0 31 C-0.020625 29.88625 -0.04125 28.7725 -0.0625 27.625 C0 24 0 24 1 22 C1.15001515 20.65004205 1.24836878 19.29406254 1.31640625 17.9375 C1.35830078 17.14085938 1.40019531 16.34421875 1.44335938 15.5234375 C1.48267578 14.69070312 1.52199219 13.85796875 1.5625 13 C1.60568359 12.16726562 1.64886719 11.33453125 1.69335938 10.4765625 C1.91872463 6.24028906 1.91872463 6.24028906 2 2 C1.34 2 0.68 2 0 2 C0 1.34 0 0.68 0 0 Z " fill="#0046C7" transform="translate(180,110)"/>
<path d="M0 0 C0 14.85 0 29.7 0 45 C-12.21 45 -24.42 45 -37 45 C-37 44.67 -37 44.34 -37 44 C-33.37 44 -29.74 44 -26 44 C-26 31.46 -26 18.92 -26 6 C-24.02 6 -22.04 6 -20 6 C-20 18.54 -20 31.08 -20 44 C-15.05 44 -10.1 44 -5 44 C-5.02094727 42.80922852 -5.04189453 41.61845703 -5.06347656 40.39160156 C-5.13590962 35.97115111 -5.18181172 31.55075304 -5.21972656 27.12988281 C-5.23983452 25.21703265 -5.26712507 23.30424389 -5.30175781 21.39160156 C-5.35031249 18.64112189 -5.37297658 15.89145523 -5.390625 13.140625 C-5.41127014 12.28631897 -5.43191528 11.43201294 -5.45318604 10.55181885 C-5.45543346 4.59689214 -5.45543346 4.59689214 -3.03808594 1.42871094 C-1 0 -1 0 0 0 Z " fill="#6EBAF7" transform="translate(181,65)"/>
<path d="M0 0 C0.66 0 1.32 0 2 0 C2.03738281 0.69867188 2.07476562 1.39734375 2.11328125 2.1171875 C2.21189453 3.48230469 2.21189453 3.48230469 2.3125 4.875 C2.39951172 6.23238281 2.39951172 6.23238281 2.48828125 7.6171875 C2.7882039 10.36221601 2.7882039 10.36221601 6 12 C6 12.66 6 13.32 6 14 C7.65 14 9.3 14 11 14 C11 15.32 11 16.64 11 18 C10.34 18 9.68 18 9 18 C9 19.98 9 21.96 9 24 C10.98 24 12.96 24 15 24 C13.39 30.67 13.39 30.67 11.01953125 32.67578125 C6.83981951 34.50879843 3.19318497 34.32619117 -1.3125 34.1875 C-2.56643555 34.16719727 -2.56643555 34.16719727 -3.84570312 34.14648438 C-5.89741498 34.11131217 -7.94879275 34.05751048 -10 34 C-13 27.375 -13 27.375 -13 24 C-11.02 24 -9.04 24 -7 24 C-7 22.02 -7 20.04 -7 18 C-7.66 18 -8.32 18 -9 18 C-9 16.68 -9 15.36 -9 14 C-7.35 14 -5.7 14 -4 14 C-3.67 13.01 -3.34 12.02 -3 11 C-2.34 10.67 -1.68 10.34 -1 10 C-0.53248212 7.64400765 -0.53248212 7.64400765 -0.375 4.9375 C-0.30023438 4.01839844 -0.22546875 3.09929687 -0.1484375 2.15234375 C-0.09945312 1.44207031 -0.05046875 0.73179688 0 0 Z " fill="#0B86FC" transform="translate(48,74)"/>
<path d="M0 0 C1.13888672 0.00193359 1.13888672 0.00193359 2.30078125 0.00390625 C6.14978797 0.06457361 9.2413413 0.20833863 12.5 2.375 C12.17 3.035 11.84 3.695 11.5 4.375 C2.095 4.87 2.095 4.87 -7.5 5.375 C-7.5 16.925 -7.5 28.475 -7.5 40.375 C13.95 40.375 35.4 40.375 57.5 40.375 C57.5 40.705 57.5 41.035 57.5 41.375 C55.89318359 41.44847656 55.89318359 41.44847656 54.25390625 41.5234375 C52.85674361 41.59845294 51.4596095 41.6740013 50.0625 41.75 C49.35544922 41.7809375 48.64839844 41.811875 47.91992188 41.84375 C46.10760812 41.94780629 44.30182012 42.15419892 42.5 42.375 C42.005 43.365 42.005 43.365 41.5 44.375 C34.61414254 44.64495355 27.72778039 44.87480726 20.83959961 45.0769043 C18.49684433 45.15036371 16.15435743 45.23297913 13.81225586 45.32495117 C10.44413572 45.45562024 7.07642073 45.55325703 3.70703125 45.64453125 C2.66102249 45.69221146 1.61501373 45.73989166 0.53730774 45.78901672 C-4.08615 45.88518989 -6.68916268 45.88875574 -10.66113281 43.37207031 C-12.98364853 39.58672739 -13.20529237 36.46823186 -13.12890625 32.15234375 C-13.13131821 31.36984756 -13.13373016 30.58735138 -13.13621521 29.78114319 C-13.13523889 28.13293368 -13.12189628 26.48469052 -13.09692383 24.83666992 C-13.06255336 22.31641237 -13.07628742 19.79965213 -13.09570312 17.27929688 C-13.08880572 15.67446428 -13.07913428 14.0696407 -13.06640625 12.46484375 C-13.07136612 11.71371811 -13.07632599 10.96259247 -13.08143616 10.18870544 C-13.00407716 6.74823494 -12.74890848 4.71992235 -10.71264648 1.89819336 C-7.33582855 -0.42641959 -3.94289203 -0.12719007 0 0 Z " fill="#BBE60E" transform="translate(21.5,143.625)"/>
<path d="M0 0 C26.4 0 52.8 0 80 0 C80.72437834 3.62189172 81.11585593 6.23765264 81.0625 9.8125 C81.05347656 10.60269531 81.04445313 11.39289063 81.03515625 12.20703125 C81.02355469 12.79871094 81.01195312 13.39039063 81 14 C77.99382731 10.99382731 78.40414684 8.17618402 78 4 C77.35675781 4.16371094 76.71351563 4.32742187 76.05078125 4.49609375 C72.07159829 5.15334676 68.2118563 5.106353 64.1875 5.0625 C63.00510742 5.05573242 63.00510742 5.05573242 61.79882812 5.04882812 C59.86585239 5.03711312 57.93291607 5.01917998 56 5 C56 7.97 56 10.94 56 14 C55.01 14 54.02 14 53 14 C53 11.03 53 8.06 53 5 C51.68 5 50.36 5 49 5 C48.67 5.66 48.34 6.32 48 7 C48 6.34 48 5.68 48 5 C34.8 5 21.6 5 8 5 C7.67 6.98 7.34 8.96 7 11 C6.67 11.66 6.34 12.32 6 13 C5.34 13 4.68 13 4 13 C4.33 10.03 4.66 7.06 5 4 C3.35 3.67 1.7 3.34 0 3 C0 2.01 0 1.02 0 0 Z " fill="#072D75" transform="translate(107,178)"/>
<path d="M0 0 C14.85 0 29.7 0 45 0 C45 2.97 45 5.94 45 9 C29.49 9 13.98 9 -2 9 C-1.34 6.03 -0.68 3.06 0 0 Z " fill="#6AB8F9" transform="translate(115,183)"/>
<path d="M0 0 C-0.33 2.97 -0.66 5.94 -1 9 C-6.94 9.495 -6.94 9.495 -13 10 C-14.37923812 13.58601912 -15.18082705 16.91896956 -15.56640625 20.72265625 C-15.64963135 21.52582275 -15.73285645 22.32898926 -15.81860352 23.15649414 C-15.87846436 23.76485107 -15.9383252 24.37320801 -16 25 C-10.60636763 24.88206288 -5.21293153 24.75783819 0.18041992 24.62768555 C2.01664247 24.5842718 3.85290708 24.54260161 5.68920898 24.50268555 C8.32288311 24.44513831 10.95634421 24.38140002 13.58984375 24.31640625 C14.41588608 24.29969376 15.24192841 24.28298126 16.09300232 24.26576233 C19.85476753 24.52192567 19.85476753 24.52192567 23 23 C23.23287008 21.31816052 23.41264166 19.6287584 23.5625 17.9375 C23.64628906 17.01839844 23.73007813 16.09929687 23.81640625 15.15234375 C23.90728516 14.08693359 23.90728516 14.08693359 24 13 C25.32 13.66 26.64 14.32 28 15 C28.10933628 16.39403756 28.18619553 17.79063776 28.25 19.1875 C28.29640625 19.96480469 28.3428125 20.74210937 28.390625 21.54296875 C27.8201905 25.13100173 26.66042718 26.51708722 24 29 C20.91747607 29.73254063 17.90157067 29.65343706 14.74609375 29.59375 C13.4001992 29.59381042 13.4001992 29.59381042 12.02711487 29.59387207 C10.13332094 29.58851775 8.23952752 29.57093864 6.34594727 29.54199219 C3.44413558 29.5000958 0.54464156 29.50092683 -2.35742188 29.5078125 C-4.19793282 29.49732132 -6.0384318 29.48438361 -7.87890625 29.46875 C-8.74769913 29.46854858 -9.616492 29.46834717 -10.51161194 29.46813965 C-11.31932541 29.45222778 -12.12703888 29.43631592 -12.95922852 29.41992188 C-14.02367943 29.40729309 -14.02367943 29.40729309 -15.1096344 29.39440918 C-17.56615311 28.88187683 -18.47343414 27.9583369 -20 26 C-20.328125 23.5546875 -20.328125 23.5546875 -20.25 20.875 C-20.23453125 19.98554688 -20.2190625 19.09609375 -20.203125 18.1796875 C-20 16 -20 16 -19 15 C-18.75738335 12.74456376 -18.61667867 10.49054477 -18.4765625 8.2265625 C-17.89306589 5.5003898 -17.22279957 4.65726428 -15 3 C-12.6953125 2.05078125 -12.6953125 2.05078125 -10.125 1.3125 C-9.28195313 1.06113281 -8.43890625 0.80976563 -7.5703125 0.55078125 C-4.96661379 -0.00715419 -2.65399031 -0.09988136 0 0 Z " fill="#004EE1" transform="translate(130,142)"/>
<path d="M0 0 C1.32 0.99 2.64 1.98 4 3 C-18.77 3 -41.54 3 -65 3 C-65 2.34 -65 1.68 -65 1 C-44.18676049 -5.24620264 -20.83261896 -7.69957116 0 0 Z " fill="#F0F8FD" transform="translate(136,29)"/>
<path d="M0 0 C2.475 0.495 2.475 0.495 5 1 C4.67 3.97 4.34 6.94 4 10 C22.48 10.33 40.96 10.66 60 11 C59.67 11.66 59.34 12.32 59 13 C58.34 13 57.68 13 57 13 C57 13.66 57 14.32 57 15 C31.92 15 6.84 15 -19 15 C-19 13.68 -19 12.36 -19 11 C-13.06 11 -7.12 11 -1 11 C-0.67 7.37 -0.34 3.74 0 0 Z " fill="#084E45" transform="translate(107,181)"/>
<path d="M0 0 C0.69738281 0.00451172 1.39476563 0.00902344 2.11328125 0.01367188 C3.82555803 0.0253998 5.53779033 0.04333347 7.25 0.0625 C4.46063092 2.32557302 1.67037045 4.49988501 -1.3125 6.5 C-4.38474823 8.65057376 -6.45523472 11.08780427 -8.75 14.0625 C-9.41 14.0625 -10.07 14.0625 -10.75 14.0625 C-11.08 15.0525 -11.41 16.0425 -11.75 17.0625 C-13.41215268 18.40145632 -15.07963607 19.73380142 -16.75 21.0625 C-17.66807575 22.12704938 -18.56408513 23.2110124 -19.4375 24.3125 C-20.200625 25.22 -20.96375 26.1275 -21.75 27.0625 C-22.41 27.0625 -23.07 27.0625 -23.75 27.0625 C-24.41079919 19.14514675 -24.47360208 13.3042173 -19.46875 6.87109375 C-13.65878626 0.75742736 -8.19479047 -0.10069213 0 0 Z " fill="#E6F4FD" transform="translate(51.75,37.9375)"/>
<path d="M0 0 C8.91 0 17.82 0 27 0 C27.66 1.32 28.32 2.64 29 4 C31.97 4 34.94 4 38 4 C37.67 5.65 37.34 7.3 37 9 C24.79 9 12.58 9 0 9 C0 6.03 0 3.06 0 0 Z " fill="#4FB0FD" transform="translate(77,123)"/>
<path d="M0 0 C2.8125 0.75 2.8125 0.75 3.8125 1.75 C3.93764928 3.72619447 3.9882276 5.70738173 4 7.6875 C4.01417969 8.76902344 4.02835938 9.85054687 4.04296875 10.96484375 C3.8125 13.75 3.8125 13.75 1.8125 15.75 C-1.6875 16 -1.6875 16 -5.1875 15.75 C-5.8475 15.09 -6.5075 14.43 -7.1875 13.75 C-7.93 14.265625 -8.6725 14.78125 -9.4375 15.3125 C-12.1875 16.75 -12.1875 16.75 -16.1875 15.75 C-16.1875 11.79 -16.1875 7.83 -16.1875 3.75 C-17.5075 3.75 -18.8275 3.75 -20.1875 3.75 C-20.1875 2.76 -20.1875 1.77 -20.1875 0.75 C-16.2275 0.75 -12.2675 0.75 -8.1875 0.75 C-7.8575 1.41 -7.5275 2.07 -7.1875 2.75 C-6.65125 2.234375 -6.115 1.71875 -5.5625 1.1875 C-3.1875 -0.25 -3.1875 -0.25 0 0 Z " fill="#E6F311" transform="translate(166.1875,42.25)"/>
<path d="M0 0 C0.99 0 1.98 0 3 0 C3 1.65 3 3.3 3 5 C4.65 5 6.3 5 8 5 C8.33 4.01 8.66 3.02 9 2 C12.77013589 -0.07591852 15.59996973 -0.13253377 19.8125 0.375 C21.27623047 0.54128906 21.27623047 0.54128906 22.76953125 0.7109375 C23.50558594 0.80632812 24.24164063 0.90171875 25 1 C25.12375 1.639375 25.2475 2.27875 25.375 2.9375 C25.58125 3.618125 25.7875 4.29875 26 5 C26.66 5.33 27.32 5.66 28 6 C19.75 6 11.5 6 3 6 C3 12.6 3 19.2 3 26 C1.35 26 -0.3 26 -2 26 C-2.07622858 22.03611362 -1.9681648 18.8726592 -1 15 C-4.3 15 -7.6 15 -11 15 C-11 10 -11 10 -9.375 7.6875 C-6.39542581 5.57043413 -4.57763189 5.67476074 -1 6 C-1.020625 5.195625 -1.04125 4.39125 -1.0625 3.5625 C-1 1 -1 1 0 0 Z " fill="#7AC3FB" transform="translate(74,117)"/>
<path d="M0 0 C3.00699108 0.04929494 5.1923291 0.08600187 8 1 C10.375 4 10.375 4 12 7 C12.66 7.33 13.32 7.66 14 8 C14 9.65 14 11.3 14 13 C4.32153574 13.64217298 -5.29381339 14.16831537 -15 14 C-14.47354367 10.58652509 -14.25267511 9.26711368 -11.8125 6.6875 C-8.57283878 4.74370327 -6.71198163 4.65469938 -3 5 C-2.690625 4.360625 -2.38125 3.72125 -2.0625 3.0625 C-1 1 -1 1 0 0 Z " fill="#EEF8FD" transform="translate(141,88)"/>
<path d="M0 0 C0.99 0 1.98 0 3 0 C2.8125 1.8125 2.8125 1.8125 2 4 C-2.4328453 7.35821613 -8.40339886 10 -14 10 C-14.10183594 10.53109375 -14.20367187 11.0621875 -14.30859375 11.609375 C-15.20308101 14.7021784 -16.59861127 17.38451568 -18.0625 20.25 C-18.61035156 21.32765625 -19.15820312 22.4053125 -19.72265625 23.515625 C-20.14417969 24.33546875 -20.56570312 25.1553125 -21 26 C-21.99 26 -22.98 26 -24 26 C-24.33 22.37 -24.66 18.74 -25 15 C-26.69125 15.495 -28.3825 15.99 -30.125 16.5 C-34.20118826 17.62029432 -37.74172426 18.3452656 -42 18 C-42 17.34 -42 16.68 -42 16 C-38.93744763 13.57107915 -35.80414198 12.6114356 -32.0859375 11.65625 C-25.78995742 9.97797992 -19.61838934 7.9952513 -13.4375 5.9375 C-11.82004883 5.4105957 -11.82004883 5.4105957 -10.16992188 4.87304688 C-9.14318359 4.53208984 -8.11644531 4.19113281 -7.05859375 3.83984375 C-6.13361084 3.53425537 -5.20862793 3.22866699 -4.25561523 2.91381836 C-1.84990263 2.10980763 -1.84990263 2.10980763 0 0 Z " fill="#0973FB" transform="translate(135,76)"/>
<path d="M0 0 C4.41244536 0.50427947 6.74974317 2.01327751 10 5 C12.28062828 8.42094242 12.21925007 9.68187222 12.125 13.6875 C12.10695312 14.68136719 12.08890625 15.67523438 12.0703125 16.69921875 C12.03550781 17.83810547 12.03550781 17.83810547 12 19 C10.68 19 9.36 19 8 19 C7.67 22.63 7.34 26.26 7 30 C4.69 30.33 2.38 30.66 0 31 C-0.125 24.25 -0.125 24.25 1 22 C1.15001515 20.65004205 1.24836878 19.29406254 1.31640625 17.9375 C1.37924805 16.74253906 1.37924805 16.74253906 1.44335938 15.5234375 C1.48267578 14.69070312 1.52199219 13.85796875 1.5625 13 C1.60568359 12.16726562 1.64886719 11.33453125 1.69335938 10.4765625 C1.91872463 6.24028906 1.91872463 6.24028906 2 2 C1.34 2 0.68 2 0 2 C0 1.34 0 0.68 0 0 Z " fill="#0149DF" transform="translate(180,110)"/>
<path d="M0 0 C0.70744354 0.00141495 1.41488708 0.0028299 2.14376831 0.00428772 C4.40578419 0.00989025 6.66770148 0.02244307 8.9296875 0.03515625 C10.46223815 0.04017093 11.99479036 0.04473389 13.52734375 0.04882812 C17.28649638 0.05986048 21.04557522 0.07712673 24.8046875 0.09765625 C24.8046875 0.42765625 24.8046875 0.75765625 24.8046875 1.09765625 C3.4036812 4.47291882 3.4036812 4.47291882 -7.1953125 5.09765625 C-8.19503397 8.45339638 -8.36174051 11.57709034 -8.44140625 15.0703125 C-8.47427734 16.21693359 -8.50714844 17.36355469 -8.54101562 18.54492188 C-8.60231023 20.95888605 -8.65958943 23.37295547 -8.71289062 25.78710938 C-8.74705078 26.93244141 -8.78121094 28.07777344 -8.81640625 29.2578125 C-8.8414624 30.30590088 -8.86651855 31.35398926 -8.89233398 32.43383789 C-9.1953125 35.09765625 -9.1953125 35.09765625 -11.1953125 38.09765625 C-14.34625562 33.37124157 -13.56726676 28.31829326 -13.56591797 22.75585938 C-13.57028341 20.73611625 -13.60658826 18.71857416 -13.64453125 16.69921875 C-13.64839844 15.42046875 -13.65226563 14.14171875 -13.65625 12.82421875 C-13.66446777 11.65455566 -13.67268555 10.48489258 -13.68115234 9.27978516 C-13.09865332 5.46456288 -11.86734142 3.82819221 -9.1953125 1.09765625 C-6.23720774 -0.38139613 -3.240597 -0.02425278 0 0 Z " fill="#EEFA44" transform="translate(149.1953125,29.90234375)"/>
<path d="M0 0 C0.66 0 1.32 0 2 0 C2.03738281 0.69867188 2.07476562 1.39734375 2.11328125 2.1171875 C2.21189453 3.48230469 2.21189453 3.48230469 2.3125 4.875 C2.39951172 6.23238281 2.39951172 6.23238281 2.48828125 7.6171875 C2.7882039 10.36221601 2.7882039 10.36221601 6 12 C6 12.66 6 13.32 6 14 C7.65 14 9.3 14 11 14 C11 15.32 11 16.64 11 18 C10.34 18 9.68 18 9 18 C9 19.98 9 21.96 9 24 C8.34 23.67 7.68 23.34 7 23 C4.7927077 22.92907158 2.58332548 22.91584975 0.375 22.9375 C-1.40777344 22.95103516 -1.40777344 22.95103516 -3.2265625 22.96484375 C-4.59941406 22.98224609 -4.59941406 22.98224609 -6 23 C-6 23.66 -6 24.32 -6 25 C-8.31 25.66 -10.62 26.32 -13 27 C-13 26.01 -13 25.02 -13 24 C-11.02 24 -9.04 24 -7 24 C-7 22.02 -7 20.04 -7 18 C-7.66 18 -8.32 18 -9 18 C-9 16.68 -9 15.36 -9 14 C-7.35 14 -5.7 14 -4 14 C-3.67 13.01 -3.34 12.02 -3 11 C-2.34 10.67 -1.68 10.34 -1 10 C-0.53248212 7.64400765 -0.53248212 7.64400765 -0.375 4.9375 C-0.30023438 4.01839844 -0.22546875 3.09929687 -0.1484375 2.15234375 C-0.09945312 1.44207031 -0.05046875 0.73179688 0 0 Z " fill="#198DFC" transform="translate(48,74)"/>
<path d="M0 0 C0 14.85 0 29.7 0 45 C-1.65 45 -3.3 45 -5 45 C-5.09891077 39.23426315 -5.17148845 33.4690206 -5.21972656 27.70263672 C-5.23983632 25.74128619 -5.26712818 23.77999556 -5.30175781 21.81884766 C-5.35030421 18.99887305 -5.37297486 16.17969135 -5.390625 13.359375 C-5.41127014 12.48319519 -5.43191528 11.60701538 -5.45318604 10.70428467 C-5.45543359 4.60006606 -5.45543359 4.60006606 -3.03808594 1.41503906 C-1 0 -1 0 0 0 Z " fill="#5CB2F3" transform="translate(181,65)"/>
<path d="M0 0 C1.56047445 0.00015913 3.12095416 0.00585397 4.68139648 0.01586914 C5.5012352 0.01728409 6.32107391 0.01869904 7.16575623 0.02015686 C9.79470406 0.0257725 12.42356797 0.0383276 15.05249023 0.05102539 C16.8304838 0.05603838 18.60847869 0.06060163 20.38647461 0.06469727 C24.75434569 0.07574701 29.12215371 0.09302208 33.48999023 0.11352539 C34.29488112 3.1325625 34.59854143 5.73204429 34.55249023 8.86352539 C34.5434668 9.66274414 34.53444336 10.46196289 34.52514648 11.28540039 C34.51354492 11.88868164 34.50194336 12.49196289 34.48999023 13.11352539 C31.48381755 10.1073527 31.89413708 7.28970941 31.48999023 3.11352539 C30.84674805 3.27723633 30.20350586 3.44094727 29.54077148 3.60961914 C25.56158852 4.26687215 21.70184654 4.21987839 17.67749023 4.17602539 C16.49509766 4.16925781 16.49509766 4.16925781 15.28881836 4.16235352 C13.35584263 4.15063851 11.42290631 4.13270537 9.48999023 4.11352539 C9.48999023 7.08352539 9.48999023 10.05352539 9.48999023 13.11352539 C8.49999023 13.11352539 7.50999023 13.11352539 6.48999023 13.11352539 C6.48999023 10.14352539 6.48999023 7.17352539 6.48999023 4.11352539 C5.16999023 4.11352539 3.84999023 4.11352539 2.48999023 4.11352539 C2.15999023 4.77352539 1.82999023 5.43352539 1.48999023 6.11352539 C1.48999023 5.45352539 1.48999023 4.79352539 1.48999023 4.11352539 C-2.80000977 3.78352539 -7.09000977 3.45352539 -11.51000977 3.11352539 C-11.51000977 2.78352539 -11.51000977 2.45352539 -11.51000977 2.11352539 C-10.37563477 1.96915039 -9.24125977 1.82477539 -8.07250977 1.67602539 C-4.15957614 1.05819377 -3.93879749 0.12739381 0 0 Z " fill="#0C275F" transform="translate(153.510009765625,178.886474609375)"/>
<path d="M0 0 C2.5 1.875 2.5 1.875 4 4 C4 4.66 4 5.32 4 6 C1.40971537 5.48194307 -1.17388247 4.96048126 -3.75 4.375 C-4.4925 4.25125 -5.235 4.1275 -6 4 C-7.19695276 4.97910585 -7.19695276 4.97910585 -7.1328125 6.8125 C-7.13023438 7.534375 -7.12765625 8.25625 -7.125 9 C-7.12757812 9.721875 -7.13015625 10.44375 -7.1328125 11.1875 C-7.19695276 13.02089415 -7.19695276 13.02089415 -6 14 C-4.33382885 14.04063832 -2.66611905 14.042721 -1 14 C-0.67 13.34 -0.34 12.68 0 12 C-1.32 12 -2.64 12 -4 12 C-4 10.68 -4 9.36 -4 8 C-1.36 8 1.28 8 4 8 C4.3125 11.25 4.3125 11.25 4 15 C1.4511805 17.9236459 -0.19515606 18.84909176 -4 19.5625 C-7 19 -7 19 -9.875 17.125 C-12.84331976 12.75982388 -12.90894571 9.13337913 -12 4 C-9.29079003 -0.74111744 -5.02686662 -1.05069753 0 0 Z " fill="#3F5139" transform="translate(52,157)"/>
<path d="M0 0 C1.32 0 2.64 0 4 0 C4.33 1.65 4.66 3.3 5 5 C5.7425 4.154375 6.485 3.30875 7.25 2.4375 C8.61125 1.2309375 8.61125 1.2309375 10 0 C12.3125 0.1875 12.3125 0.1875 14 1 C13.319375 1.9075 12.63875 2.815 11.9375 3.75 C9.80479617 6.66507078 9.80479617 6.66507078 10.0625 9.0625 C11.031116 11.14399022 11.031116 11.14399022 12.5625 13.5625 C14 16 14 16 14 19 C12.68 19 11.36 19 10 19 C7.875 16.0625 7.875 16.0625 6 13 C5.34 12.67 4.68 12.34 4 12 C4 14.31 4 16.62 4 19 C2.68 19 1.36 19 0 19 C0 12.73 0 6.46 0 0 Z " fill="#0B1C46" transform="translate(59,157)"/>
<path d="M0 0 C0.33 0 0.66 0 1 0 C1.33 28.38 1.66 56.76 2 86 C3.32 85.01 4.64 84.02 6 83 C8.359375 82.70703125 8.359375 82.70703125 10.75 82.8125 C11.54921875 82.83957031 12.3484375 82.86664063 13.171875 82.89453125 C14.07679687 82.94673828 14.07679687 82.94673828 15 83 C15 84.98 15 86.96 15 89 C8.4 89 1.8 89 -5 89 C-5 88.67 -5 88.34 -5 88 C-3.35 88 -1.7 88 0 88 C0 58.96 0 29.92 0 0 Z " fill="#A0D6F0" transform="translate(27,55)"/>
<path d="M0 0 C5.61 0 11.22 0 17 0 C17.66 2.97 18.32 5.94 19 9 C12.73 9 6.46 9 0 9 C0 6.03 0 3.06 0 0 Z " fill="#7FC1F7" transform="translate(163,183)"/>
<path d="M0 0 C2.97 0 5.94 0 9 0 C8.67 3.63 8.34 7.26 8 11 C9.98 11 11.96 11 14 11 C14 11.33 14 11.66 14 12 C6.41 12 -1.18 12 -9 12 C-9 10.02 -9 8.04 -9 6 C-5.7 6 -2.4 6 1 6 C0.67 4.02 0.34 2.04 0 0 Z " fill="#A1D6F3" transform="translate(64,132)"/>
<path d="M0 0 C2.64051083 0.5032121 4.1232609 1.35741851 5.90625 3.36328125 C5.90625 4.35328125 5.90625 5.34328125 5.90625 6.36328125 C4.58625 6.36328125 3.26625 6.36328125 1.90625 6.36328125 C1.57625 5.70328125 1.24625 5.04328125 0.90625 4.36328125 C-0.75986905 4.32056025 -2.42757885 4.32264293 -4.09375 4.36328125 C-5.29070276 5.3423871 -5.29070276 5.3423871 -5.2265625 7.17578125 C-5.22398438 7.89765625 -5.22140625 8.61953125 -5.21875 9.36328125 C-5.22132812 10.08515625 -5.22390625 10.80703125 -5.2265625 11.55078125 C-5.29070276 13.3841754 -5.29070276 13.3841754 -4.09375 14.36328125 C-2.42757885 14.40391957 -0.75986905 14.40600225 0.90625 14.36328125 C1.23625 13.70328125 1.56625 13.04328125 1.90625 12.36328125 C3.22625 12.36328125 4.54625 12.36328125 5.90625 12.36328125 C5.54427104 14.98762872 5.07968943 16.18341814 3.21875 18.11328125 C0.1721125 19.76011233 -1.67532468 19.86180161 -5.09375 19.36328125 C-7.39650556 17.49618215 -8.77198871 16.00680384 -10.09375 13.36328125 C-10.46119365 8.88046875 -10.61083331 6.39744787 -8.59375 2.36328125 C-5.53705123 -0.08207776 -3.81942813 -0.24940296 0 0 Z " fill="#1D283C" transform="translate(31.09375,156.63671875)"/>
<path d="M0 0 C0.66 0 1.32 0 2 0 C2.13657216 1.39303605 2.23271149 2.79006121 2.3125 4.1875 C2.37050781 4.96480469 2.42851563 5.74210938 2.48828125 6.54296875 C1.93198909 9.34223088 0.97828267 10.97137837 -1.09196472 12.93998718 C-5.55999634 15.42221109 -11.21853094 14.59121127 -16.17578125 14.48828125 C-17.45607712 14.48120651 -18.73637299 14.47413177 -20.0554657 14.46684265 C-23.44745312 14.44781714 -26.83835774 14.39875838 -30.22991943 14.34332275 C-33.69544834 14.29203199 -37.16115347 14.26930789 -40.62695312 14.24414062 C-47.41843687 14.1890341 -54.20912029 14.10537646 -61 14 C-61 13.67 -61 13.34 -61 13 C-47.47 13 -33.94 13 -20 13 C-19.67 12.01 -19.34 11.02 -19 10 C-17.92878906 9.95101562 -16.85757813 9.90203125 -15.75390625 9.8515625 C-14.35674361 9.77654706 -12.9596095 9.7009987 -11.5625 9.625 C-10.85544922 9.5940625 -10.14839844 9.563125 -9.41992188 9.53125 C-7.60760812 9.42719371 -5.80182012 9.22080108 -4 9 C-3.67 8.34 -3.34 7.68 -3 7 C-2.01 7 -1.02 7 0 7 C0 4.69 0 2.38 0 0 Z " fill="#95CF13" transform="translate(83,175)"/>
<path d="M0 0 C1.22912109 -0.00128906 2.45824219 -0.00257813 3.72460938 -0.00390625 C5.63790039 0.00189453 5.63790039 0.00189453 7.58984375 0.0078125 C8.86923828 0.00394531 10.14863281 0.00007812 11.46679688 -0.00390625 C12.69462891 -0.00261719 13.92246094 -0.00132812 15.1875 0 C16.30777588 0.00112793 17.42805176 0.00225586 18.58227539 0.00341797 C21.08439396 0.11335106 23.14592125 0.40268845 25.52734375 1.1328125 C25.52734375 2.1228125 25.52734375 3.1128125 25.52734375 4.1328125 C12.65734375 4.4628125 -0.21265625 4.7928125 -13.47265625 5.1328125 C-11.47265625 1.1328125 -11.47265625 1.1328125 -9.25219727 0.39111328 C-6.15227099 0.10303932 -3.11397269 0.00313209 0 0 Z " fill="#097BF6" transform="translate(128.47265625,153.8671875)"/>
<path d="M0 0 C1 1 1 1 1.09765625 3.50390625 C1.06510417 6.3359375 1.03255208 9.16796875 1 12 C-3.29 12 -7.58 12 -12 12 C-12.51752022 6.82479784 -12.51752022 6.82479784 -12 4 C-8.19492283 0.37611698 -5.19884247 -0.60451657 0 0 Z " fill="#0782F6" transform="translate(54,132)"/>
<path d="M0 0 C0.78375 0.04125 1.5675 0.0825 2.375 0.125 C2.705 1.115 3.035 2.105 3.375 3.125 C5.35545559 3.78679847 5.35545559 3.78679847 7.375 4.125 C7.705 4.455 8.035 4.785 8.375 5.125 C9.035 4.465 9.695 3.805 10.375 3.125 C10.705 6.425 11.035 9.725 11.375 13.125 C9.395 13.455 7.415 13.785 5.375 14.125 C6.035 12.475 6.695 10.825 7.375 9.125 C6.055 9.125 4.735 9.125 3.375 9.125 C3.045 10.115 2.715 11.105 2.375 12.125 C0 12.25 0 12.25 -2.625 12.125 C-4.625 10.125 -4.625 10.125 -4.890625 8.25 C-4.88546875 7.54875 -4.8803125 6.8475 -4.875 6.125 C-4.88015625 5.42375 -4.8853125 4.7225 -4.890625 4 C-4.43038182 0.75122461 -3.13681296 0.14937205 0 0 Z " fill="#D5EB09" transform="translate(29.625,159.875)"/>
<path d="M0 0 C1.60279192 0.00015914 3.20558896 0.00585476 4.80834961 0.01586914 C5.65038437 0.01728409 6.49241913 0.01869904 7.35997009 0.02015686 C10.06024671 0.02577276 12.76044163 0.03832791 15.46069336 0.05102539 C17.28686404 0.05603834 19.11303602 0.06060161 20.93920898 0.06469727 C25.42556878 0.07574735 29.9118672 0.0930226 34.39819336 0.11352539 C34.39819336 1.10352539 34.39819336 2.09352539 34.39819336 3.11352539 C33.43518311 3.13858154 32.47217285 3.1636377 31.47998047 3.18945312 C27.88106719 3.2841681 24.28231836 3.38422791 20.68359375 3.48583984 C19.13089872 3.52894784 17.57816362 3.57063807 16.02539062 3.61083984 C13.78365033 3.66913229 11.54210732 3.73265117 9.30053711 3.79711914 C8.27197853 3.82218788 8.27197853 3.82218788 7.22264099 3.84776306 C2.86775972 3.97933659 -1.30848728 4.42766823 -5.60180664 5.11352539 C-4.47901767 0.14117422 -4.47901767 0.14117422 0 0 Z " fill="#00359F" transform="translate(120.601806640625,150.886474609375)"/>
<path d="M0 0 C0.99 0.33 1.98 0.66 3 1 C3 3.31 3 5.62 3 8 C10.59 8 18.18 8 26 8 C26.33 6.35 26.66 4.7 27 3 C28.3125 1.1875 28.3125 1.1875 30 0 C31.32 0 32.64 0 34 0 C32.79618552 2.49361571 31.54571278 4.68143083 30 7 C29.835 8.19625 29.67 9.3925 29.5 10.625 C29.335 11.73875 29.17 12.8525 29 14 C25.79937313 15.60031344 23.27728194 14.03173691 20 13 C20 12.67 20 12.34 20 12 C21.65 12 23.3 12 25 12 C25 11.01 25 10.02 25 9 C16.42 9 7.84 9 -1 9 C-1 2 -1 2 0 0 Z " fill="#0041C1" transform="translate(130,142)"/>
<path d="M0 0 C0.33 0 0.66 0 1 0 C1 4.62 1 9.24 1 14 C4.63 14 8.26 14 12 14 C12 9.38 12 4.76 12 0 C12.33 0 12.66 0 13 0 C13 6.6 13 13.2 13 20 C10.69 20 8.38 20 6 20 C4.02 20.99 2.04 21.98 0 23 C0 15.41 0 7.82 0 0 Z " fill="#1B93FD" transform="translate(42,113)"/>
<path d="M0 0 C0.33 0 0.66 0 1 0 C1.1238616 4.05656281 1.21445733 8.11238978 1.2746582 12.17041016 C1.2997593 13.54983702 1.33384873 14.92913142 1.37719727 16.30810547 C1.43802875 18.29335872 1.46357937 20.27959359 1.48828125 22.265625 C1.51446533 23.45961914 1.54064941 24.65361328 1.56762695 25.88378906 C1 29 1 29 -1.53051758 31.42089844 C-2.34544678 31.94200195 -3.16037598 32.46310547 -4 33 C-3.83483887 32.28521484 -3.66967773 31.57042969 -3.49951172 30.83398438 C-3.00201217 28.01141609 -2.93096134 25.51653805 -3.0078125 22.65625 C-3.03294922 21.15771484 -3.03294922 21.15771484 -3.05859375 19.62890625 C-3.10286841 17.5427884 -3.15495393 15.45682171 -3.21484375 13.37109375 C-3.35014708 3.83835946 -3.35014708 3.83835946 0 0 Z " fill="#D4F216" transform="translate(180,36)"/>
<path d="M0 0 C11.55 0 23.1 0 35 0 C34.67 0.99 34.34 1.98 34 3 C22.45 3 10.9 3 -1 3 C-0.67 2.01 -0.34 1.02 0 0 Z " fill="#AAE203" transform="translate(29,185)"/>
<path d="M0 0 C0.75042068 0.00424484 1.50084137 0.00848969 2.27400208 0.01286316 C4.66871151 0.02964425 7.06257659 0.06729385 9.45703125 0.10546875 C11.08136805 0.1205164 12.70571805 0.13420466 14.33007812 0.14648438 C18.31022073 0.1795457 22.28973288 0.23132281 26.26953125 0.29296875 C25.60953125 1.28296875 24.94953125 2.27296875 24.26953125 3.29296875 C21.5741281 3.55983088 19.11105661 3.64114948 16.41796875 3.5859375 C15.64393707 3.58169266 14.8699054 3.57744781 14.07241821 3.57307434 C11.59610448 3.55625873 9.12059967 3.5186027 6.64453125 3.48046875 C4.96745966 3.46542557 3.29037533 3.45173653 1.61328125 3.43945312 C-2.50161456 3.40634596 -6.61590444 3.35454512 -10.73046875 3.29296875 C-8.01837355 -0.6589414 -4.34245974 -0.09233143 0 0 Z " fill="#B1E003" transform="translate(53.73046875,144.70703125)"/>
<path d="M0 0 C7.92 0 15.84 0 24 0 C24 0.66 24 1.32 24 2 C25.32 2.33 26.64 2.66 28 3 C18.595 3.495 18.595 3.495 9 4 C8.01 6.64 7.02 9.28 6 12 C5.34 12 4.68 12 4 12 C4.33 9.03 4.66 6.06 5 3 C3.35 2.67 1.7 2.34 0 2 C0 1.34 0 0.68 0 0 Z " fill="#042053" transform="translate(107,179)"/>
<path d="M0 0 C2.39691753 2.49627162 2.98497283 3.72885759 3.1796875 7.2421875 C3.07914063 8.44101563 2.97859375 9.63984375 2.875 10.875 C2.78992188 12.06867188 2.70484375 13.26234375 2.6171875 14.4921875 C1.9744761 18.14506623 0.81779148 20.78693074 -1 24 C-4.63 24 -8.26 24 -12 24 C-11.67 23.34 -11.34 22.68 -11 22 C-9.87464844 21.66355469 -8.74929687 21.32710937 -7.58984375 20.98046875 C-5.09448765 19.96714883 -4.21055643 19.44852962 -3.05126953 16.97900391 C-2.41097248 14.42960662 -1.95231279 11.9118858 -1.5625 9.3125 C-1.32370117 7.97348633 -1.32370117 7.97348633 -1.08007812 6.60742188 C-0.69197472 4.40816922 -0.33332868 2.20810393 0 0 Z " fill="#0239BD" transform="translate(191,154)"/>
<path d="M0 0 C0.33 0 0.66 0 1 0 C1 4.29 1 8.58 1 13 C0.67 13 0.34 13 0 13 C-0.33 11.35 -0.66 9.7 -1 8 C-3.64 7.67 -6.28 7.34 -9 7 C-9 8.32 -9 9.64 -9 11 C-7.68 11 -6.36 11 -5 11 C-5.33 11.99 -5.66 12.98 -6 14 C-8.375 14.125 -8.375 14.125 -11 14 C-13 12 -13 12 -13.265625 10.125 C-13.26046875 9.42375 -13.2553125 8.7225 -13.25 8 C-13.25515625 7.29875 -13.2603125 6.5975 -13.265625 5.875 C-13 4 -13 4 -11 2 C-7.41411676 2.38766305 -4.30012079 3.58566252 -1 5 C-0.67 3.35 -0.34 1.7 0 0 Z " fill="#DFEF0E" transform="translate(57,158)"/>
<path d="M0 0 C1.80746134 1.80746134 1.17303483 4.50445781 1.1875 6.9375 C1.20167969 8.01902344 1.21585938 9.10054687 1.23046875 10.21484375 C1 13 1 13 -1 15 C-4.625 15.125 -4.625 15.125 -8 15 C-8.33 13.68 -8.66 12.36 -9 11 C-6.69 11.33 -4.38 11.66 -2 12 C-2.33 11.01 -2.66 10.02 -3 9 C-3.99 8.67 -4.98 8.34 -6 8 C-6 7.34 -6 6.68 -6 6 C-5.01 5.67 -4.02 5.34 -3 5 C-3 4.34 -3 3.68 -3 3 C-3.99 2.67 -4.98 2.34 -6 2 C-6 2.66 -6 3.32 -6 4 C-6.99 4 -7.98 4 -9 4 C-8.625 2.0625 -8.625 2.0625 -8 0 C-5.11795733 -1.44102133 -3.08226581 -0.65580124 0 0 Z " fill="#2D393D" transform="translate(169,43)"/>
<path d="M0 0 C1.4540625 0.0309375 1.4540625 0.0309375 2.9375 0.0625 C2.9375 2.3725 2.9375 4.6825 2.9375 7.0625 C-3.0025 7.0625 -8.9425 7.0625 -15.0625 7.0625 C-14.7325 6.0725 -14.4025 5.0825 -14.0625 4.0625 C-11.8125 3.1484375 -11.8125 3.1484375 -9.0625 2.4375 C-5.73172997 1.55749542 -3.30233052 0.0673945 0 0 Z " fill="#96D1FD" transform="translate(128.0625,133.9375)"/>
<path d="M0 0 C2.5 1.875 2.5 1.875 4 4 C4 4.66 4 5.32 4 6 C1.41931567 5.48386313 -1.13694286 4.96496811 -3.6875 4.3125 C-4.450625 4.209375 -5.21375 4.10625 -6 4 C-8.29575603 6.29575603 -8.32339599 7.00842525 -8.625 10.125 C-8.74875 11.40375 -8.8725 12.6825 -9 14 C-9.99 14 -10.98 14 -12 14 C-12.6132879 5.07325383 -12.6132879 5.07325383 -10.5 1.375 C-6.9687789 -0.5671716 -3.94078812 -0.82368932 0 0 Z " fill="#212D3D" transform="translate(52,157)"/>
<path d="M0 0 C1.32 0 2.64 0 4 0 C4 2.97 4 5.94 4 9 C-11.51 9 -27.02 9 -43 9 C-42.67 8.01 -42.34 7.02 -42 6 C-42 6.66 -42 7.32 -42 8 C-28.14 8 -14.28 8 0 8 C-0.495 5.03 -0.495 5.03 -1 2 C-0.67 1.34 -0.34 0.68 0 0 Z " fill="#4193AE" transform="translate(156,183)"/>
<path d="M0 0 C3.96 0 7.92 0 12 0 C12 0.99 12 1.98 12 3 C10.68 3 9.36 3 8 3 C8 6.96 8 10.92 8 15 C6.68 15 5.36 15 4 15 C4 11.04 4 7.08 4 3 C2.68 3 1.36 3 0 3 C0 2.01 0 1.02 0 0 Z " fill="#303D3C" transform="translate(146,43)"/>
<path d="M0 0 C5.28 0 10.56 0 16 0 C15.67 1.65 15.34 3.3 15 5 C10.05 5 5.1 5 0 5 C0 3.35 0 1.7 0 0 Z " fill="#31B1FD" transform="translate(41,103)"/>
<path d="M0 0 C0.33 1.32 0.66 2.64 1 4 C-1.97 6.475 -1.97 6.475 -5 9 C-5.33 7.68 -5.66 6.36 -6 5 C-7.83219646 6.83219646 -7.23901328 9.75713741 -7.31640625 12.22265625 C-7.35830078 13.48271484 -7.40019531 14.74277344 -7.44335938 16.04101562 C-7.48317596 17.38150736 -7.52288814 18.7220022 -7.5625 20.0625 C-7.60568042 21.40691523 -7.64929456 22.7513166 -7.69335938 24.09570312 C-7.79985358 27.3970234 -7.9018646 30.69842236 -8 34 C-8.33 34 -8.66 34 -9 34 C-9.12406007 29.96174934 -9.21455045 25.92424362 -9.2746582 21.88452148 C-9.29972617 20.51192898 -9.33379082 19.13946898 -9.37719727 17.76733398 C-9.43817531 15.78949304 -9.46361009 13.81065816 -9.48828125 11.83203125 C-9.51446533 10.64327393 -9.54064941 9.4545166 -9.56762695 8.22973633 C-8.56021354 2.49766233 -5.74738653 0 0 0 Z " fill="#1688FD" transform="translate(110,142)"/>
<path d="M0 0 C1.46373047 0.16628906 1.46373047 0.16628906 2.95703125 0.3359375 C3.69308594 0.43132812 4.42914063 0.52671875 5.1875 0.625 C5.5175 1.945 5.8475 3.265 6.1875 4.625 C0.2475 4.625 -5.6925 4.625 -11.8125 4.625 C-10.8125 1.625 -10.8125 1.625 -8.61328125 0.4140625 C-5.46562982 -0.47272354 -3.23445265 -0.38969309 0 0 Z " fill="#8BCDFD" transform="translate(93.8125,117.375)"/>
<path d="M0 0 C0 2.64 0 5.28 0 8 C-3.3 8 -6.6 8 -10 8 C-10 6.35 -10 4.7 -10 3 C-6.71110421 0.27491491 -4.21712557 -0.36146791 0 0 Z " fill="#59B4FC" transform="translate(73,124)"/>
<path d="M0 0 C0.33 0 0.66 0 1 0 C1.66 2.31 2.32 4.62 3 7 C4.65 7 6.3 7 8 7 C8.33 6.34 8.66 5.68 9 5 C10.32 5 11.64 5 13 5 C12.63802104 7.62434747 12.17343943 8.82013689 10.3125 10.75 C7.2658625 12.39683108 5.41842532 12.49852036 2 12 C-0.5 10.5 -0.5 10.5 -2 8 C-1.7136651 5.11462519 -0.92753753 2.78261258 0 0 Z " fill="#233035" transform="translate(24,164)"/>
<path d="M0 0 C0.66 0 1.32 0 2 0 C1.89032902 4.27137254 1.7596501 8.54184766 1.625 12.8125 C1.5940625 14.02744141 1.563125 15.24238281 1.53125 16.49414062 C1.49257812 17.65751953 1.45390625 18.82089844 1.4140625 20.01953125 C1.3826416 21.09307861 1.3512207 22.16662598 1.31884766 23.27270508 C1 26 1 26 -1 29 C-2.64838944 25.70322112 -2.14272738 22.05683956 -2.125 18.4375 C-2.12886719 17.64408203 -2.13273438 16.85066406 -2.13671875 16.03320312 C-2.12663067 10.12663067 -2.12663067 10.12663067 -1 9 C-0.76807135 7.48530552 -0.58784762 5.96245438 -0.4375 4.4375 C-0.35371094 3.61121094 -0.26992187 2.78492188 -0.18359375 1.93359375 C-0.12300781 1.29550781 -0.06242188 0.65742187 0 0 Z " fill="#EFFB26" transform="translate(139,39)"/>
<path d="M0 0 C0.99 0.33 1.98 0.66 3 1 C2.8859425 3.91747073 2.75919732 6.83344495 2.625 9.75 C2.5940625 10.575 2.563125 11.4 2.53125 12.25 C2.49257812 13.04921875 2.45390625 13.8484375 2.4140625 14.671875 C2.3826416 15.4050293 2.3512207 16.13818359 2.31884766 16.89355469 C1.96227477 19.24922918 1.16337117 20.93450591 0 23 C0 20.69 0 18.38 0 16 C-0.33 16 -0.66 16 -1 16 C-1.02685095 13.52076199 -1.04676547 11.0418116 -1.0625 8.5625 C-1.07506836 7.50192383 -1.07506836 7.50192383 -1.08789062 6.41992188 C-1.09653588 4.61306441 -1.05220011 2.80612397 -1 1 C-0.67 0.67 -0.34 0.34 0 0 Z " fill="#1345BA" transform="translate(193,143)"/>
<path d="M0 0 C1.32 0 2.64 0 4 0 C4.33 2.64 4.66 5.28 5 8 C4.34 8 3.68 8 3 8 C3 5.69 3 3.38 3 1 C2.34 1 1.68 1 1 1 C1 4.3 1 7.6 1 11 C2.98 10.67 4.96 10.34 7 10 C6.67 10.99 6.34 11.98 6 13 C5.34 12.67 4.68 12.34 4 12 C4 14.31 4 16.62 4 19 C2.68 19 1.36 19 0 19 C0 12.73 0 6.46 0 0 Z " fill="#304135" transform="translate(59,157)"/>
<path d="M0 0 C3.96 0 7.92 0 12 0 C12 1.65 12 3.3 12 5 C8.04 5 4.08 5 0 5 C0 3.35 0 1.7 0 0 Z " fill="#7ACDFD" transform="translate(43,92)"/>
<path d="M0 0 C0 1.98 0 3.96 0 6 C-0.99 6.495 -0.99 6.495 -2 7 C-2.66 6.67 -3.32 6.34 -4 6 C-4 18.54 -4 31.08 -4 44 C-4.33 44 -4.66 44 -5 44 C-5.09892174 38.3766798 -5.17149342 32.75386667 -5.21972656 27.12988281 C-5.23983452 25.21703265 -5.26712507 23.30424389 -5.30175781 21.39160156 C-5.35031249 18.64112189 -5.37297658 15.89145523 -5.390625 13.140625 C-5.41127014 12.28631897 -5.43191528 11.43201294 -5.45318604 10.55181885 C-5.45543346 4.59689214 -5.45543346 4.59689214 -3.03808594 1.42871094 C-1 0 -1 0 0 0 Z " fill="#77BFF5" transform="translate(181,65)"/>
<path d="M0 0 C0.83265381 0.00523682 1.66530762 0.01047363 2.52319336 0.01586914 C3.42231445 0.0190918 4.32143555 0.02231445 5.24780273 0.02563477 C6.66609375 0.03820312 6.66609375 0.03820312 8.11303711 0.05102539 C9.06243164 0.05553711 10.01182617 0.06004883 10.98999023 0.06469727 C13.34356776 0.07652429 15.69702188 0.09300514 18.05053711 0.11352539 C18.05053711 0.77352539 18.05053711 1.43352539 18.05053711 2.11352539 C19.37053711 2.44352539 20.69053711 2.77352539 22.05053711 3.11352539 C20.09227838 3.14047391 18.13391485 3.15989757 16.17553711 3.17602539 C14.5397168 3.19342773 14.5397168 3.19342773 12.87084961 3.21118164 C10.05053711 3.11352539 10.05053711 3.11352539 8.05053711 2.11352539 C5.00879817 1.94682266 5.00879817 1.94682266 2.05053711 2.11352539 C1.72053711 2.44352539 1.39053711 2.77352539 1.05053711 3.11352539 C-0.80233791 3.18579041 -2.65780167 3.19733759 -4.51196289 3.17602539 C-5.52387695 3.16700195 -6.53579102 3.15797852 -7.57836914 3.14868164 C-8.36083008 3.13708008 -9.14329102 3.12547852 -9.94946289 3.11352539 C-9.94946289 2.78352539 -9.94946289 2.45352539 -9.94946289 2.11352539 C-8.81508789 1.96915039 -7.68071289 1.82477539 -6.51196289 1.67602539 C-3.54403693 1.2074055 -2.6260793 0.1529276 0 0 Z " fill="#041E52" transform="translate(151.949462890625,178.886474609375)"/>
<path d="M0 0 C3.0625 0.25 3.0625 0.25 6.0625 2.25 C6.35546875 4.6328125 6.35546875 4.6328125 6.25 7.375 C6.22292969 8.28507813 6.19585937 9.19515625 6.16796875 10.1328125 C6.13316406 10.83148438 6.09835938 11.53015625 6.0625 12.25 C5.0725 12.25 4.0825 12.25 3.0625 12.25 C3.0625 9.28 3.0625 6.31 3.0625 3.25 C1.7425 3.25 0.4225 3.25 -0.9375 3.25 C-1.2675 3.91 -1.5975 4.57 -1.9375 5.25 C-1.9375 4.59 -1.9375 3.93 -1.9375 3.25 C-2.9275 2.92 -3.9175 2.59 -4.9375 2.25 C-2.9375 0.25 -2.9375 0.25 0 0 Z " fill="#0A2247" transform="translate(156.9375,179.75)"/>
<path d="M0 0 C0.33 0 0.66 0 1 0 C2.88927821 11.09950946 2.88927821 11.09950946 2 16 C-0.5 18.5625 -0.5 18.5625 -3 20 C-2.33644956 13.25390382 -1.28134207 6.65551466 0 0 Z " fill="#C6EA10" transform="translate(179,49)"/>
<path d="M0 0 C4.2164401 1.56164448 6.41869823 4.41485865 9 8 C9 9.32 9 10.64 9 12 C6 12 6 12 4.140625 10.390625 C3.20476563 9.33101562 3.20476563 9.33101562 2.25 8.25 C1.61578125 7.55390625 0.9815625 6.8578125 0.328125 6.140625 C-1 4 -1 4 -0.703125 1.734375 C-0.47109375 1.16203125 -0.2390625 0.5896875 0 0 Z " fill="#D8F427" transform="translate(22,16)"/>
<path d="M0 0 C3.96 0 7.92 0 12 0 C12 0.33 12 0.66 12 1 C10.35 1.33 8.7 1.66 7 2 C7.33 2.33 7.66 2.66 8 3 C7.30232558 9.39534884 7.30232558 9.39534884 6 12 C5.34 12 4.68 12 4 12 C4.33 9.03 4.66 6.06 5 3 C3.35 2.67 1.7 2.34 0 2 C0 1.34 0 0.68 0 0 Z " fill="#0A275C" transform="translate(107,179)"/>
<path d="M0 0 C1.43836751 0.11458693 2.87570966 0.24209116 4.3125 0.375 C5.51326172 0.47941406 5.51326172 0.47941406 6.73828125 0.5859375 C9 1 9 1 12 3 C12 3.99 12 4.98 12 6 C10.58249437 5.88490339 9.16598831 5.75746342 7.75 5.625 C6.96109375 5.55539063 6.1721875 5.48578125 5.359375 5.4140625 C2.914123 4.98492887 1.15163097 4.21399362 -1 3 C-0.67 2.01 -0.34 1.02 0 0 Z " fill="#D8F421" transform="translate(14,31)"/>
<path d="M0 0 C1.32 0 2.64 0 4 0 C4.33 3.96 4.66 7.92 5 12 C3.68 12 2.36 12 1 12 C0.67 8.04 0.34 4.08 0 0 Z " fill="#DBF32A" transform="translate(36,11)"/>
<path d="M0 0 C1.65322266 0.01740234 1.65322266 0.01740234 3.33984375 0.03515625 C4.99693359 0.04869141 4.99693359 0.04869141 6.6875 0.0625 C7.54214844 0.07410156 8.39679688 0.08570313 9.27734375 0.09765625 C9.27734375 1.08765625 9.27734375 2.07765625 9.27734375 3.09765625 C4.65734375 3.75765625 0.03734375 4.41765625 -4.72265625 5.09765625 C-3.47944235 0.12480066 -3.47944235 0.12480066 0 0 Z " fill="#003CB9" transform="translate(119.72265625,150.90234375)"/>
<path d="M0 0 C1.32 0 2.64 0 4 0 C4 1.98 4 3.96 4 6 C4.99 6.33 5.98 6.66 7 7 C0.73 7 -5.54 7 -12 7 C-12 6.67 -12 6.34 -12 6 C-8.04 6 -4.08 6 0 6 C0 4.02 0 2.04 0 0 Z " fill="#5DA6D6" transform="translate(175,185)"/>
<path d="M0 0 C4.95 0 9.9 0 15 0 C14.67 0.99 14.34 1.98 14 3 C9.38 3 4.76 3 0 3 C0 2.01 0 1.02 0 0 Z " fill="#B6E502" transform="translate(19,145)"/>
<path d="M0 0 C-1.86192283 1.99267584 -3.38992958 2.92846769 -6.11132812 3.24755859 C-8.66311554 3.29513603 -11.19884745 3.26098224 -13.75 3.1875 C-14.63816406 3.17396484 -15.52632812 3.16042969 -16.44140625 3.14648438 C-18.62822578 3.11121309 -20.81379966 3.06192752 -23 3 C-23 2.67 -23 2.34 -23 2 C-15.2472493 0.48462814 -7.89957062 -0.27990605 0 0 Z " fill="#E8FA23" transform="translate(177,31)"/>
<path d="M0 0 C0.99 0 1.98 0 3 0 C3.125 2.375 3.125 2.375 3 5 C1 7 1 7 -2.625 7.125 C-3.73875 7.08375 -4.8525 7.0425 -6 7 C-6.33 5.68 -6.66 4.36 -7 3 C-4.69 3.33 -2.38 3.66 0 4 C0 2.68 0 1.36 0 0 Z " fill="#222E3D" transform="translate(167,51)"/>
<path d="M0 0 C1.32 0 2.64 0 4 0 C4 2.97 4 5.94 4 9 C2.68 9 1.36 9 0 9 C-1.125 2.25 -1.125 2.25 0 0 Z " fill="#829933" transform="translate(156,183)"/>
<path d="M0 0 C4.95 0 9.9 0 15 0 C12.1256616 2.8743384 9.13547122 2.8074996 5.21484375 3.4375 C4.48394531 3.623125 3.75304687 3.80875 3 4 C2.67 4.66 2.34 5.32 2 6 C2 4.68 2 3.36 2 2 C1.34 2 0.68 2 0 2 C0 1.34 0 0.68 0 0 Z " fill="#015CF6" transform="translate(110,142)"/>
<path d="M0 0 C4.83256305 0.41421969 6.82679218 2.46413986 10 6 C7.625 7.0625 7.625 7.0625 5 8 C4.34 7.67 3.68 7.34 3 7 C2.375 4.4375 2.375 4.4375 2 2 C1.34 2 0.68 2 0 2 C0 1.34 0 0.68 0 0 Z " fill="#1257E8" transform="translate(180,110)"/>
<path d="M0 0 C3.76607955 1.25535985 4.26441793 2.52883585 6 6 C6 6.99 6 7.98 6 9 C4.68 9 3.36 9 2 9 C0.4375 6.1875 0.4375 6.1875 -1 3 C-0.67 2.01 -0.34 1.02 0 0 Z " fill="#2D3B37" transform="translate(67,167)"/>
<path d="M0 0 C1.32 0.33 2.64 0.66 4 1 C2.35 3.64 0.7 6.28 -1 9 C-1.99 8.67 -2.98 8.34 -4 8 C-4.33 7.01 -4.66 6.02 -5 5 C-2.75 2.4375 -2.75 2.4375 0 0 Z " fill="#242E35" transform="translate(69,157)"/>
<path d="M0 0 C0.99 0 1.98 0 3 0 C2.67 3.63 2.34 7.26 2 11 C1.01 10.67 0.02 10.34 -1 10 C-1.125 2.25 -1.125 2.25 0 0 Z " fill="#053FB6" transform="translate(188,129)"/>
<path d="M0 0 C1.88646445 2.77421243 1.99303187 4.13239454 1.8125 7.5625 C1.03313844 10.85979889 0.65561386 12.03715497 -2 14 C-3.05128687 10.76470168 -2.91901775 8.60277903 -2.125 5.3125 C-1.94195312 4.52488281 -1.75890625 3.73726562 -1.5703125 2.92578125 C-1 1 -1 1 0 0 Z " fill="#0F43B5" transform="translate(191,164)"/>
<path d="M0 0 C1.65 0 3.3 0 5 0 C4.67 1.65 4.34 3.3 4 5 C0.04 5 -3.92 5 -8 5 C-8 4.67 -8 4.34 -8 4 C-5.69 4 -3.38 4 -1 4 C-0.67 2.68 -0.34 1.36 0 0 Z " fill="#26AAFD" transform="translate(52,103)"/>
<path d="M0 0 C1.65 0 3.3 0 5 0 C5 2.31 5 4.62 5 7 C3.35 7 1.7 7 0 7 C0 4.69 0 2.38 0 0 Z " fill="#54ADF2" transform="translate(155,71)"/>
<path d="M0 0 C3.96 0 7.92 0 12 0 C9 3 9 3 6.51953125 3.29296875 C5.62621094 3.25816406 4.73289062 3.22335938 3.8125 3.1875 C2.91144531 3.16042969 2.01039062 3.13335937 1.08203125 3.10546875 C0.05142578 3.05326172 0.05142578 3.05326172 -1 3 C-0.67 2.01 -0.34 1.02 0 0 Z " fill="#A7D502" transform="translate(34,145)"/>
<path d="M0 0 C0.33 0 0.66 0 1 0 C1 4.62 1 9.24 1 14 C2.65 14.33 4.3 14.66 6 15 C5.01 16.485 5.01 16.485 4 18 C2.68 18 1.36 18 0 18 C0 12.06 0 6.12 0 0 Z " fill="#2E9CFD" transform="translate(42,113)"/>
<path d="M0 0 C2.64 0 5.28 0 8 0 C8 1.32 8 2.64 8 4 C5.36 4 2.72 4 0 4 C0 2.68 0 1.36 0 0 Z " fill="#B0DCFB" transform="translate(34,127)"/>
<path d="M0 0 C0.66 0 1.32 0 2 0 C2 3.63 2 7.26 2 11 C1.01 11 0.02 11 -1 11 C-1.0270043 9.54176788 -1.04639787 8.08339325 -1.0625 6.625 C-1.07410156 5.81289062 -1.08570313 5.00078125 -1.09765625 4.1640625 C-1 2 -1 2 0 0 Z " fill="#1853CF" transform="translate(190,118)"/>
<path d="M0 0 C0.928125 0.0825 1.85625 0.165 2.8125 0.25 C2.8125 1.57 2.8125 2.89 2.8125 4.25 C-0.1575 4.25 -3.1275 4.25 -6.1875 4.25 C-4.36434338 1.00883268 -3.82500054 0.30000004 0 0 Z " fill="#04423D" transform="translate(85.1875,191.75)"/>
<path d="M0 0 C2.31 0 4.62 0 7 0 C7.1875 2.875 7.1875 2.875 7 6 C6.01 6.66 5.02 7.32 4 8 C2.75453595 5.50907189 3.2232422 4.58919267 4 2 C2.68 2 1.36 2 0 2 C0 1.34 0 0.68 0 0 Z " fill="#14223A" transform="translate(49,166)"/>
<path d="M0 0 C2.625 0.625 2.625 0.625 5 2 C5.8125 4.125 5.8125 4.125 6 6 C2.17902761 5.46930939 -0.06171403 4.50298434 -3 2 C-2.01 1.34 -1.02 0.68 0 0 Z " fill="#2C3B34" transform="translate(50,157)"/>
<path d="M0 0 C1.11375 0.3403125 1.11375 0.3403125 2.25 0.6875 C1.125 2.6875 1.125 2.6875 -0.75 4.6875 C-3.9375 4.9375 -3.9375 4.9375 -6.75 4.6875 C-6.75 2.6875 -6.75 2.6875 -5.0625 1 C-2.75 -0.3125 -2.75 -0.3125 0 0 Z " fill="#B2DCFB" transform="translate(35.75,138.3125)"/>
<path d="M0 0 C0 1.98 0 3.96 0 6 C-0.99 6.495 -0.99 6.495 -2 7 C-2.66 6.67 -3.32 6.34 -4 6 C-4 8.31 -4 10.62 -4 13 C-4.33 13 -4.66 13 -5 13 C-5.62837838 4.83108108 -5.62837838 4.83108108 -3.0625 1.4375 C-1 0 -1 0 0 0 Z " fill="#6DBCE9" transform="translate(181,65)"/>
<path d="M0 0 C0.94875 0.04125 1.8975 0.0825 2.875 0.125 C2.545 1.115 2.215 2.105 1.875 3.125 C-2.88807437 4.07761487 -7.2916528 4.20833357 -12.125 4.125 C-12.125 3.795 -12.125 3.465 -12.125 3.125 C-11.01125 3.00125 -9.8975 2.8775 -8.75 2.75 C-4.70641243 2.05282973 -3.97840317 0.15913613 0 0 Z " fill="#B8E619" transform="translate(26.125,184.875)"/>
<path d="M0 0 C-0.33 0.66 -0.66 1.32 -1 2 C-3.97 1.67 -6.94 1.34 -10 1 C-10.33 0.01 -10.66 -0.98 -11 -2 C-6.74891557 -3.87047715 -3.9091836 -1.87941519 0 0 Z " fill="#0B4BCA" transform="translate(194,142)"/>
<path d="M0 0 C2.64 0 5.28 0 8 0 C7.67 0.66 7.34 1.32 7 2 C6.34 2 5.68 2 5 2 C5 2.66 5 3.32 5 4 C3.35 4 1.7 4 0 4 C0 2.68 0 1.36 0 0 Z " fill="#07484D" transform="translate(159,192)"/>
<path d="M0 0 C0.99 0 1.98 0 3 0 C3 1.65 3 3.3 3 5 C0.69 5 -1.62 5 -4 5 C-2.1875 2.5 -2.1875 2.5 0 0 Z " fill="#9DD1F9" transform="translate(39,138)"/>
<path d="M0 0 C0.33 0 0.66 0 1 0 C1.33 3.3 1.66 6.6 2 10 C0.02 10.33 -1.96 10.66 -4 11 C-3.67 8.69 -3.34 6.38 -3 4 C-2.34 4 -1.68 4 -1 4 C-0.67 2.68 -0.34 1.36 0 0 Z " fill="#B5C811" transform="translate(39,163)"/>
<path d="M0 0 C0.99 0 1.98 0 3 0 C3 2.64 3 5.28 3 8 C2.01 8 1.02 8 0 8 C0 5.36 0 2.72 0 0 Z " fill="#13203E" transform="translate(40,163)"/>
<path d="M0 0 C1.32 0.66 2.64 1.32 4 2 C4 3.32 4 4.64 4 6 C2.125 5.6875 2.125 5.6875 0 5 C-0.66 4.01 -1.32 3.02 -2 2 C-1.34 1.34 -0.68 0.68 0 0 Z " fill="#A6D40A" transform="translate(80,145)"/>
<path d="M0 0 C0 0.99 0 1.98 0 3 C-0.86625 2.938125 -1.7325 2.87625 -2.625 2.8125 C-6.44199033 3.02455502 -8.71077536 4.12044307 -12 6 C-11.67 4.68 -11.34 3.36 -11 2 C-5.555 1.01 -5.555 1.01 0 0 Z " fill="#118BFD" transform="translate(54,130)"/>
<path d="M0 0 C1.98 0 3.96 0 6 0 C6 1.32 6 2.64 6 4 C4.02 4 2.04 4 0 4 C0 2.68 0 1.36 0 0 Z " fill="#93D9FE" transform="translate(43,93)"/>
<path d="M0 0 C2.64 0 5.28 0 8 0 C7.01 1.485 7.01 1.485 6 3 C2.375 3.1875 2.375 3.1875 -1 3 C-0.67 2.01 -0.34 1.02 0 0 Z " fill="#AFDF04" transform="translate(15,185)"/>
<path d="M0 0 C0.33 0 0.66 0 1 0 C1 2.97 1 5.94 1 9 C0.01 9 -0.98 9 -2 9 C-2.25 3.375 -2.25 3.375 0 0 Z " fill="#153251" transform="translate(162,183)"/>
<path d="M0 0 C0.99 0 1.98 0 3 0 C2.47731534 2.76276177 1.89130413 5.3260876 1 8 C0.01 7.67 -0.98 7.34 -2 7 C-1.34 4.69 -0.68 2.38 0 0 Z " fill="#B9C61A" transform="translate(109,183)"/>
<path d="M0 0 C0.99 0 1.98 0 3 0 C3.33 2.64 3.66 5.28 4 8 C3.01 7.67 2.02 7.34 1 7 C0.67 4.69 0.34 2.38 0 0 Z " fill="#99A41F" transform="translate(182,183)"/>
<path d="M0 0 C0.33 0 0.66 0 1 0 C1 4.29 1 8.58 1 13 C0.67 13 0.34 13 0 13 C-0.12375 12.21625 -0.2475 11.4325 -0.375 10.625 C-0.79117993 7.85942178 -0.79117993 7.85942178 -3 6 C-2.01 4.02 -1.02 2.04 0 0 Z " fill="#E4F90C" transform="translate(57,158)"/>
<path d="M0 0 C4.75 0.875 4.75 0.875 7 2 C7 2.99 7 3.98 7 5 C5.35 5 3.7 5 2 5 C2 3.68 2 2.36 2 1 C1.34 0.67 0.68 0.34 0 0 Z " fill="#DDF73D" transform="translate(19,32)"/>
<path d="M0 0 C0.99 0.33 1.98 0.66 3 1 C3 3.97 3 6.94 3 10 C-0.00617269 6.99382731 0.40414684 4.17618402 0 0 Z " fill="#0B1D40" transform="translate(185,182)"/>
<path d="M0 0 C0.33 0 0.66 0 1 0 C0.67 2.31 0.34 4.62 0 7 C-2.31 7.66 -4.62 8.32 -7 9 C-7 8.01 -7 7.02 -7 6 C-5.02 6 -3.04 6 -1 6 C-0.67 4.02 -0.34 2.04 0 0 Z " fill="#2693FD" transform="translate(42,92)"/>
<path d="M0 0 C1.65 0 3.3 0 5 0 C4.01 0.33 3.02 0.66 2 1 C2.20625 1.78375 2.4125 2.5675 2.625 3.375 C2.810625 4.674375 2.810625 4.674375 3 6 C2.34 6.66 1.68 7.32 1 8 C0.67 5.36 0.34 2.72 0 0 Z " fill="#334544" transform="translate(180,182)"/>
<path d="M0 0 C2.31 0 4.62 0 7 0 C5.49336217 3.01327566 2.96833589 3.61056618 0 5 C0 3.35 0 1.7 0 0 Z " fill="#16213B" transform="translate(25,157)"/>
<path d="M0 0 C-0.33 0.66 -0.66 1.32 -1 2 C-3.32156597 2.40729228 -5.6568787 2.74438677 -8 3 C-7.67 2.01 -7.34 1.02 -7 0 C-2.25 -1.125 -2.25 -1.125 0 0 Z " fill="#0569F7" transform="translate(106,90)"/>
<path d="M0 0 C0 0.66 0 1.32 0 2 C-2.95664519 3.4783226 -5.74229737 3.06032783 -9 3 C-5.92807025 0.26939578 -4.09590633 -0.34132553 0 0 Z " fill="#65BCFE" transform="translate(73,124)"/>
<path d="M0 0 C1.32 0 2.64 0 4 0 C4.33 1.32 4.66 2.64 5 4 C3.35 4 1.7 4 0 4 C0 2.68 0 1.36 0 0 Z " fill="#7EC9FE" transform="translate(95,118)"/>
<path d="M0 0 C1.32 0.33 2.64 0.66 4 1 C4 1.99 4 2.98 4 4 C1.69 3.67 -0.62 3.34 -3 3 C-2.01 2.67 -1.02 2.34 0 2 C0 1.34 0 0.68 0 0 Z " fill="#CBD818" transform="translate(163,51)"/>
<path d="M0 0 C0.66 0.66 1.32 1.32 2 2 C1.625 5.125 1.625 5.125 1 8 C0.34 8 -0.32 8 -1 8 C-0.67 5.36 -0.34 2.72 0 0 Z " fill="#102E44" transform="translate(112,183)"/>
</svg>
